<svg width="16" height="16" viewBox="0 0 16 16" fill="none" xmlns="http://www.w3.org/2000/svg">
<path fill-rule="evenodd" clip-rule="evenodd" d="M6.6666 1.33337C9.60735 1.33337 11.9999 3.72597 11.9999 6.66672C11.9999 7.89712 11.577 9.02837 10.8743 9.93175L14.6654 13.7229L13.7228 14.6656L9.93163 10.8745C9.02825 11.5771 7.897 12 6.6666 12C3.72585 12 1.33325 9.60747 1.33325 6.66672C1.33325 3.72597 3.72585 1.33337 6.6666 1.33337ZM6.6666 2.66672C4.46085 2.66672 2.6666 4.46097 2.6666 6.66672C2.6666 8.87244 4.46085 10.6667 6.6666 10.6667C8.87231 10.6667 10.6666 8.87244 10.6666 6.66672C10.6666 4.46097 8.87231 2.66672 6.6666 2.66672ZM6.6666 7.66672C7.21888 7.66672 7.6666 8.11444 7.6666 8.66672C7.6666 9.219 7.21888 9.66672 6.6666 9.66672C6.11431 9.66672 5.6666 9.219 5.6666 8.66672C5.6666 8.11444 6.11431 7.66672 6.6666 7.66672ZM7.33325 3.33337V6.66672H5.99991V3.33337H7.33325Z" fill="white"/>
</svg>
