<svg width="14" height="14" viewBox="0 0 14 14" fill="none" xmlns="http://www.w3.org/2000/svg">
<path d="M12 1H2C1.73478 1 1.48043 1.10536 1.29289 1.29289C1.10536 1.48043 1 1.73478 1 2V4.5C1 4.63261 0.947322 4.75979 0.853553 4.85355C0.759785 4.94732 0.632608 5 0.5 5C0.367392 5 0.240215 4.94732 0.146447 4.85355C0.0526784 4.75979 0 4.63261 0 4.5V2C0 1.46957 0.210714 0.960859 0.585786 0.585786C0.960859 0.210714 1.46957 0 2 0L12 0C12.5304 0 13.0391 0.210714 13.4142 0.585786C13.7893 0.960859 14 1.46957 14 2V4.5C14 4.63261 13.9473 4.75979 13.8536 4.85355C13.7598 4.94732 13.6326 5 13.5 5C13.3674 5 13.2402 4.94732 13.1464 4.85355C13.0527 4.75979 13 4.63261 13 4.5V2C13 1.73478 12.8946 1.48043 12.7071 1.29289C12.5196 1.10536 12.2652 1 12 1ZM0.5 9C0.632608 9 0.759785 9.05268 0.853553 9.14645C0.947322 9.24021 1 9.36739 1 9.5V12C1 12.2652 1.10536 12.5196 1.29289 12.7071C1.48043 12.8946 1.73478 13 2 13H12C12.2652 13 12.5196 12.8946 12.7071 12.7071C12.8946 12.5196 13 12.2652 13 12V9.5C13 9.36739 13.0527 9.24021 13.1464 9.14645C13.2402 9.05268 13.3674 9 13.5 9C13.6326 9 13.7598 9.05268 13.8536 9.14645C13.9473 9.24021 14 9.36739 14 9.5V12C14 12.5304 13.7893 13.0391 13.4142 13.4142C13.0391 13.7893 12.5304 14 12 14H2C1.46957 14 0.960859 13.7893 0.585786 13.4142C0.210714 13.0391 0 12.5304 0 12V9.5C0 9.36739 0.0526784 9.24021 0.146447 9.14645C0.240215 9.05268 0.367392 9 0.5 9Z" fill="white"/>
<path d="M9.482 3.968C9.4529 3.8625 9.38999 3.76946 9.30292 3.70316C9.21586 3.63686 9.10944 3.60095 9 3.60095C8.89056 3.60095 8.78414 3.63686 8.69708 3.70316C8.61001 3.76946 8.5471 3.8625 8.518 3.968L7.362 8.606L6.447 6.776C6.40544 6.69305 6.34161 6.62331 6.26267 6.57456C6.18373 6.52582 6.09278 6.5 6 6.5H0.5C0.367392 6.5 0.240215 6.55268 0.146447 6.64645C0.0526784 6.74022 0 6.86739 0 7C0 7.13261 0.0526784 7.25979 0.146447 7.35355C0.240215 7.44732 0.367392 7.5 0.5 7.5H5.691L7.053 10.224C7.09822 10.3147 7.16993 10.3895 7.25863 10.4386C7.34734 10.4876 7.44885 10.5085 7.54971 10.4985C7.65056 10.4885 7.74601 10.4481 7.82339 10.3827C7.90077 10.3172 7.95643 10.2298 7.983 10.132L9 6L10.018 10.132C10.0446 10.2298 10.1002 10.3172 10.1776 10.3827C10.255 10.4481 10.3504 10.4885 10.4513 10.4985C10.5522 10.5085 10.6537 10.4876 10.7424 10.4386C10.8311 10.3895 10.9028 10.3147 10.948 10.224L12.308 7.5H13.5C13.6326 7.5 13.7598 7.44732 13.8536 7.35355C13.9473 7.25979 14 7.13261 14 7C14 6.86739 13.9473 6.74022 13.8536 6.64645C13.7598 6.55268 13.6326 6.5 13.5 6.5H12C11.9072 6.5 11.8163 6.52582 11.7373 6.57456C11.6584 6.62331 11.5946 6.69305 11.553 6.776L10.638 8.606L9.482 3.968Z" fill="white"/>
</svg>
