<svg width="16" height="16" viewBox="0 0 16 16" fill="none" xmlns="http://www.w3.org/2000/svg">
<path d="M15.375 8.55469C15.5729 8.74219 15.7266 8.96094 15.8359 9.21094C15.9453 9.46094 16 9.72396 16 10C16 10.276 15.9479 10.5339 15.8438 10.7734C15.7396 11.013 15.5964 11.2266 15.4141 11.4141C15.2318 11.6016 15.0208 11.7448 14.7812 11.8438C14.5417 11.9427 14.2812 11.9948 14 12C13.8906 12 13.7812 11.9922 13.6719 11.9766L9.99219 13.8125C9.9974 13.8438 10 13.875 10 13.9062C10 13.9375 10 13.9688 10 14C10 14.276 9.94792 14.5339 9.84375 14.7734C9.73958 15.013 9.59635 15.2266 9.41406 15.4141C9.23177 15.6016 9.02083 15.7448 8.78125 15.8438C8.54167 15.9427 8.28125 15.9948 8 16C7.72917 16 7.47396 15.9479 7.23438 15.8438C6.99479 15.7396 6.78125 15.599 6.59375 15.4219C6.40625 15.2448 6.26042 15.0339 6.15625 14.7891C6.05208 14.5443 5.9974 14.2891 5.99219 14.0234V13.9219C5.99219 13.8906 5.9974 13.8542 6.00781 13.8125L2.32812 11.9766C2.21875 11.9922 2.10938 12 2 12C1.72396 12 1.46615 11.9479 1.22656 11.8438C0.986979 11.7396 0.773438 11.5964 0.585938 11.4141C0.398438 11.2318 0.255208 11.0208 0.15625 10.7812C0.0572917 10.5417 0.00520833 10.2812 0 10C0 9.63021 0.09375 9.28906 0.28125 8.97656C0.46875 8.66406 0.726562 8.41927 1.05469 8.24219L2.42188 3.22656C2.14062 2.86719 2 2.45833 2 2C2 1.72396 2.05208 1.46615 2.15625 1.22656C2.26042 0.986979 2.40365 0.773438 2.58594 0.585938C2.76823 0.398438 2.97917 0.255208 3.21875 0.15625C3.45833 0.0572917 3.71875 0.00520833 4 0C4.35938 0 4.69271 0.0885417 5 0.265625C5.30729 0.442708 5.55208 0.6875 5.73438 1H10.2656C10.4479 0.6875 10.6927 0.442708 11 0.265625C11.3073 0.0885417 11.6406 0 12 0C12.276 0 12.5339 0.0520833 12.7734 0.15625C13.013 0.260417 13.2266 0.403646 13.4141 0.585938C13.6016 0.768229 13.7448 0.979167 13.8438 1.21875C13.9427 1.45833 13.9948 1.71875 14 2C14 2.21875 13.9661 2.42969 13.8984 2.63281C13.8307 2.83594 13.7292 3.02604 13.5938 3.20312L15.375 8.55469ZM12 10C12 9.71354 12.0573 9.4401 12.1719 9.17969C12.2865 8.91927 12.4531 8.69531 12.6719 8.50781L9.16406 5.875L3.98438 9.75781L4 10H12ZM4 4C3.75521 4 3.51562 3.95573 3.28125 3.86719L2.15625 8.00781C2.44271 8.03385 2.71094 8.11458 2.96094 8.25C3.21094 8.38542 3.42448 8.56771 3.60156 8.79688L8.33594 5.25L5.60156 3.20312C5.40885 3.45312 5.17448 3.64844 4.89844 3.78906C4.6224 3.92969 4.32292 4 4 4ZM13.6953 8.02344C13.737 8.01302 13.7839 8.00781 13.8359 8.00781C13.888 8.00781 13.9375 8.00521 13.9844 8H14.0625C14.0885 8 14.1146 8.0026 14.1406 8.00781L12.7578 3.85156C12.5026 3.95052 12.25 4 12 4C11.8958 4 11.7943 3.99219 11.6953 3.97656L10 5.25L13.6953 8.02344ZM12 1C11.8594 1 11.7292 1.02604 11.6094 1.07812C11.4896 1.13021 11.3854 1.20052 11.2969 1.28906C11.2083 1.3776 11.1354 1.48438 11.0781 1.60938C11.0208 1.73438 10.9948 1.86458 11 2C11 2.14062 11.026 2.27083 11.0781 2.39062C11.1302 2.51042 11.2005 2.61458 11.2891 2.70312C11.3776 2.79167 11.4844 2.86458 11.6094 2.92188C11.7344 2.97917 11.8646 3.00521 12 3C12.1406 3 12.2708 2.97396 12.3906 2.92188C12.5104 2.86979 12.6146 2.79948 12.7031 2.71094C12.7917 2.6224 12.8646 2.51562 12.9219 2.39062C12.9792 2.26562 13.0052 2.13542 13 2C13 1.85938 12.974 1.72917 12.9219 1.60938C12.8698 1.48958 12.7995 1.38542 12.7109 1.29688C12.6224 1.20833 12.5156 1.13542 12.3906 1.07812C12.2656 1.02083 12.1354 0.994792 12 1ZM10 2H6L5.98438 2.24219L9.16406 4.625L10.6719 3.49219C10.4531 3.30469 10.2865 3.08073 10.1719 2.82031C10.0573 2.5599 10 2.28646 10 2ZM4 1C3.85938 1 3.72917 1.02604 3.60938 1.07812C3.48958 1.13021 3.38542 1.20052 3.29688 1.28906C3.20833 1.3776 3.13542 1.48438 3.07812 1.60938C3.02083 1.73438 2.99479 1.86458 3 2C3 2.14062 3.02604 2.27083 3.07812 2.39062C3.13021 2.51042 3.20052 2.61458 3.28906 2.70312C3.3776 2.79167 3.48438 2.86458 3.60938 2.92188C3.73438 2.97917 3.86458 3.00521 4 3C4.14062 3 4.27083 2.97396 4.39062 2.92188C4.51042 2.86979 4.61458 2.79948 4.70312 2.71094C4.79167 2.6224 4.86458 2.51562 4.92188 2.39062C4.97917 2.26562 5.00521 2.13542 5 2C5 1.85938 4.97396 1.72917 4.92188 1.60938C4.86979 1.48958 4.79948 1.38542 4.71094 1.29688C4.6224 1.20833 4.51562 1.13542 4.39062 1.07812C4.26562 1.02083 4.13542 0.994792 4 1ZM1 10C1 10.1406 1.02604 10.2708 1.07812 10.3906C1.13021 10.5104 1.20052 10.6146 1.28906 10.7031C1.3776 10.7917 1.48438 10.8646 1.60938 10.9219C1.73438 10.9792 1.86458 11.0052 2 11C2.14062 11 2.27083 10.974 2.39062 10.9219C2.51042 10.8698 2.61458 10.7995 2.70312 10.7109C2.79167 10.6224 2.86458 10.5156 2.92188 10.3906C2.97917 10.2656 3.00521 10.1354 3 10C3 9.85938 2.97396 9.72917 2.92188 9.60938C2.86979 9.48958 2.79948 9.38542 2.71094 9.29688C2.6224 9.20833 2.51562 9.13542 2.39062 9.07812C2.26562 9.02083 2.13542 8.99479 2 9C1.85938 9 1.72917 9.02604 1.60938 9.07812C1.48958 9.13021 1.38542 9.20052 1.29688 9.28906C1.20833 9.3776 1.13542 9.48438 1.07812 9.60938C1.02083 9.73438 0.994792 9.86458 1 10ZM8 15C8.14062 15 8.27083 14.974 8.39062 14.9219C8.51042 14.8698 8.61458 14.7995 8.70312 14.7109C8.79167 14.6224 8.86458 14.5156 8.92188 14.3906C8.97917 14.2656 9.00521 14.1354 9 14C9 13.8594 8.97396 13.7292 8.92188 13.6094C8.86979 13.4896 8.79948 13.3854 8.71094 13.2969C8.6224 13.2083 8.51562 13.1354 8.39062 13.0781C8.26562 13.0208 8.13542 12.9948 8 13C7.85938 13 7.72917 13.026 7.60938 13.0781C7.48958 13.1302 7.38542 13.2005 7.29688 13.2891C7.20833 13.3776 7.13542 13.4844 7.07812 13.6094C7.02083 13.7344 6.99479 13.8646 7 14C7 14.1406 7.02604 14.2708 7.07812 14.3906C7.13021 14.5104 7.20052 14.6146 7.28906 14.7031C7.3776 14.7917 7.48438 14.8646 7.60938 14.9219C7.73438 14.9792 7.86458 15.0052 8 15ZM8 12C8.32812 12 8.63802 12.0755 8.92969 12.2266C9.22135 12.3776 9.46094 12.5911 9.64844 12.8672L12.5781 11.4062C12.5208 11.3438 12.4661 11.2786 12.4141 11.2109C12.362 11.1432 12.3125 11.0729 12.2656 11H3.73438C3.69271 11.0729 3.64583 11.1432 3.59375 11.2109C3.54167 11.2786 3.48438 11.3438 3.42188 11.4062L6.35156 12.8672C6.53385 12.5964 6.77083 12.3854 7.0625 12.2344C7.35417 12.0833 7.66667 12.0052 8 12ZM14 11C14.1406 11 14.2708 10.974 14.3906 10.9219C14.5104 10.8698 14.6146 10.7995 14.7031 10.7109C14.7917 10.6224 14.8646 10.5156 14.9219 10.3906C14.9792 10.2656 15.0052 10.1354 15 10C15 9.82812 14.9583 9.66667 14.875 9.51562C14.7917 9.36458 14.6771 9.24479 14.5312 9.15625L14.5234 9.16406L14.5156 9.15625L14.5234 9.14844C14.3568 9.04948 14.1823 9 14 9C13.8594 9 13.7292 9.02604 13.6094 9.07812C13.4896 9.13021 13.3854 9.20052 13.2969 9.28906C13.2083 9.3776 13.1354 9.48438 13.0781 9.60938C13.0208 9.73438 12.9948 9.86458 13 10C13 10.1406 13.026 10.2708 13.0781 10.3906C13.1302 10.5104 13.2005 10.6146 13.2891 10.7031C13.3776 10.7917 13.4844 10.8646 13.6094 10.9219C13.7344 10.9792 13.8646 11.0052 14 11Z" fill="white"/>
</svg>
