<svg width="16" height="16" viewBox="0 0 16 16" fill="none" xmlns="http://www.w3.org/2000/svg">
<path d="M13.5 9.5C14.327 9.5 15 8.827 15 8C15 7.173 14.327 6.5 13.5 6.5C13.1908 6.50092 12.8894 6.59754 12.6373 6.77659C12.3852 6.95564 12.1947 7.20834 12.092 7.5H9.207L12.857 3.85C13.053 3.9435 13.269 4 13.5 4C14.327 4 15 3.327 15 2.5C15 1.673 14.327 1 13.5 1C12.673 1 12 1.673 12 2.5C12 2.731 12.057 2.947 12.15 3.1425L8 7.293V4C8 3.449 8.4485 3 9 3H10V2H9C8.4 2 7.867 2.2715 7.5 2.691C7.31402 2.47515 7.08385 2.30176 6.82507 2.18255C6.56628 2.06333 6.28492 2.00108 6 2H5.5C3.019 2 1 4.0185 1 6.5V9.5C1 11.9815 3.019 14 5.5 14H6C6.6 14 7.133 13.729 7.5 13.309C7.867 13.729 8.4 14 9 14H10V13H9C8.4485 13 8 12.5515 8 12V8.707L12.15 12.8575C12.0565 13.053 12 13.269 12 13.5C12 14.3275 12.673 15 13.5 15C14.327 15 15 14.3275 15 13.5C15 12.6725 14.327 12 13.5 12C13.2772 12.0012 13.0576 12.0526 12.8575 12.1505L9.207 8.5005H12.092C12.1948 8.79206 12.3853 9.04466 12.6374 9.22362C12.8895 9.40257 13.1908 9.49912 13.5 9.5ZM13.5 7.5C13.6326 7.5 13.7598 7.55268 13.8536 7.64645C13.9473 7.74021 14 7.86739 14 8C14 8.13261 13.9473 8.25979 13.8536 8.35355C13.7598 8.44732 13.6326 8.5 13.5 8.5C13.3674 8.5 13.2402 8.44732 13.1464 8.35355C13.0527 8.25979 13 8.13261 13 8C13 7.86739 13.0527 7.74021 13.1464 7.64645C13.2402 7.55268 13.3674 7.5 13.5 7.5ZM13.5 2C13.6287 2.00576 13.7503 2.06095 13.8394 2.15409C13.9284 2.24723 13.9781 2.37113 13.9781 2.5C13.9781 2.62887 13.9284 2.75277 13.8394 2.84591C13.7503 2.93905 13.6287 2.99424 13.5 3C13.3674 3 13.2402 2.94732 13.1464 2.85355C13.0527 2.75979 13 2.63261 13 2.5C13 2.36739 13.0527 2.24021 13.1464 2.14645C13.2402 2.05268 13.3674 2 13.5 2ZM7 6H6V7H7V9H6C5.173 9 4.5 9.673 4.5 10.5V11.5H5.5V10.5C5.5 10.3674 5.55268 10.2402 5.64645 10.1464C5.74021 10.0527 5.86739 10 6 10H7V12C7 12.5515 6.5515 13 6 13H5.5C3.74 13 2.284 11.6935 2.04 10H3V9H2V7H3.5C4.327 7 5 6.327 5 5.5V4.5H4V5.5C4 5.63261 3.94732 5.75979 3.85355 5.85355C3.75979 5.94732 3.63261 6 3.5 6H2.04C2.284 4.3065 3.74 3 5.5 3H6C6.5515 3 7 3.449 7 4V6ZM14 13.5C13.9942 13.6287 13.939 13.7503 13.8459 13.8394C13.7528 13.9284 13.6289 13.9781 13.5 13.9781C13.3711 13.9781 13.2472 13.9284 13.1541 13.8394C13.061 13.7503 13.0058 13.6287 13 13.5C13 13.2245 13.2245 13 13.5 13C13.7755 13 14 13.2245 14 13.5Z" fill="white"/>
</svg>
