<svg width="22" height="28" viewBox="0 0 22 28" fill="none" xmlns="http://www.w3.org/2000/svg">
<mask id="mask0_118_463" style="mask-type:luminance" maskUnits="userSpaceOnUse" x="0" y="0" width="22" height="28">
<path d="M12.1666 1.16437C12.1666 0.521357 12.689 0 13.3333 0H20.3334C20.9776 0 21.5 0.521357 21.5 1.16437V26.7811C21.5 27.4241 20.9776 27.9454 20.3334 27.9454H1.66665C1.02238 27.9454 0.5 27.4241 0.5 26.781V15.1372C0.5 14.4941 1.02238 13.9728 1.66665 13.9728H6.33341V8.15078C6.33341 7.50768 6.8557 6.98633 7.50005 6.98633H12.1666V1.16437Z" fill="white"/>
</mask>
<g mask="url(#mask0_118_463)">
<path d="M21.5 0V27.9454H12.1666V0H21.5Z" fill="url(#paint0_linear_118_463)"/>
</g>
<mask id="mask1_118_463" style="mask-type:luminance" maskUnits="userSpaceOnUse" x="0" y="0" width="22" height="28">
<path d="M12.1666 1.16437C12.1666 0.521357 12.689 0 13.3333 0H20.3334C20.9776 0 21.5 0.521357 21.5 1.16437V26.7811C21.5 27.4241 20.9776 27.9454 20.3334 27.9454H1.66665C1.02238 27.9454 0.5 27.4241 0.5 26.781V15.1372C0.5 14.4941 1.02238 13.9728 1.66665 13.9728H6.33341V8.15078C6.33341 7.50768 6.8557 6.98633 7.50005 6.98633H12.1666V1.16437Z" fill="white"/>
</mask>
<g mask="url(#mask1_118_463)">
<path d="M15.6667 8.26722V28.0619H6.33325V7.10284H14.5C15.1442 7.10284 15.6666 7.62412 15.6666 8.26722" fill="black" fill-opacity="0.2"/>
</g>
<mask id="mask2_118_463" style="mask-type:luminance" maskUnits="userSpaceOnUse" x="0" y="0" width="22" height="28">
<path d="M12.1666 1.16437C12.1666 0.521357 12.689 0 13.3333 0H20.3334C20.9776 0 21.5 0.521357 21.5 1.16437V26.7811C21.5 27.4241 20.9776 27.9454 20.3334 27.9454H1.66665C1.02238 27.9454 0.5 27.4241 0.5 26.781V15.1372C0.5 14.4941 1.02238 13.9728 1.66665 13.9728H6.33341V8.15078C6.33341 7.50768 6.8557 6.98633 7.50005 6.98633H12.1666V1.16437Z" fill="white"/>
</mask>
<g mask="url(#mask2_118_463)">
<path d="M15.6667 8.733V28.5276H6.33325V7.56854H14.5C15.1442 7.56854 15.6666 8.0899 15.6666 8.733" fill="black" fill-opacity="0.18"/>
</g>
<mask id="mask3_118_463" style="mask-type:luminance" maskUnits="userSpaceOnUse" x="0" y="0" width="22" height="28">
<path d="M12.1666 1.16437C12.1666 0.521357 12.689 0 13.3333 0H20.3334C20.9776 0 21.5 0.521357 21.5 1.16437V26.7811C21.5 27.4241 20.9776 27.9454 20.3334 27.9454H1.66665C1.02238 27.9454 0.5 27.4241 0.5 26.781V15.1372C0.5 14.4941 1.02238 13.9728 1.66665 13.9728H6.33341V8.15078C6.33341 7.50768 6.8557 6.98633 7.50005 6.98633H12.1666V1.16437Z" fill="white"/>
</mask>
<g mask="url(#mask3_118_463)">
<path d="M15.6667 8.15078V27.9454H6.33325V6.98633H14.5C15.1442 6.98633 15.6666 7.50768 15.6666 8.15078" fill="url(#paint1_linear_118_463)"/>
</g>
<mask id="mask4_118_463" style="mask-type:luminance" maskUnits="userSpaceOnUse" x="0" y="0" width="22" height="28">
<path d="M12.1666 1.16437C12.1666 0.521357 12.689 0 13.3333 0H20.3334C20.9776 0 21.5 0.521357 21.5 1.16437V26.7811C21.5 27.4241 20.9776 27.9454 20.3334 27.9454H1.66665C1.02238 27.9454 0.5 27.4241 0.5 26.781V15.1372C0.5 14.4941 1.02238 13.9728 1.66665 13.9728H6.33341V8.15078C6.33341 7.50768 6.8557 6.98633 7.50005 6.98633H12.1666V1.16437Z" fill="white"/>
</mask>
<g mask="url(#mask4_118_463)">
<path d="M0.5 13.9727V27.9454H9.83335V15.1372C9.83335 14.4941 9.31098 13.9728 8.6667 13.9728L0.5 13.9727Z" fill="url(#paint2_linear_118_463)"/>
</g>
<defs>
<linearGradient id="paint0_linear_118_463" x1="409.702" y1="-6.78653e-06" x2="1438.02" y2="2184" gradientUnits="userSpaceOnUse">
<stop stop-color="#E6AD10"/>
<stop offset="1" stop-color="#C87E0E"/>
</linearGradient>
<linearGradient id="paint1_linear_118_463" x1="380.809" y1="6.98631" x2="1238.77" y2="1674.21" gradientUnits="userSpaceOnUse">
<stop stop-color="#F6D751"/>
<stop offset="1" stop-color="#E6AD10"/>
</linearGradient>
<linearGradient id="paint2_linear_118_463" x1="259.725" y1="13.9727" x2="781.957" y2="1254.05" gradientUnits="userSpaceOnUse">
<stop stop-color="#F9E589"/>
<stop offset="1" stop-color="#F6D751"/>
</linearGradient>
</defs>
</svg>
