<svg width="28" height="28" viewBox="0 0 28 28" fill="none" xmlns="http://www.w3.org/2000/svg">
<path d="M13.8814 0.00793457C6.79045 0.00793457 7.2332 3.09507 7.2332 3.09507L7.24107 6.29344H14.0079V7.25368H4.5534C4.5534 7.25368 0.0158691 6.73705 0.0158691 13.9199C0.0158691 21.1029 3.97634 20.8482 3.97634 20.8482H6.33993V17.515C6.33993 17.515 6.21251 13.539 10.2372 13.539H16.9486C16.9486 13.539 20.7194 13.6001 20.7194 9.88041V3.73007C20.7194 3.73007 21.292 0.00793457 13.8814 0.00793457ZM10.1502 2.15877C10.3101 2.15863 10.4685 2.19014 10.6163 2.25151C10.764 2.31287 10.8983 2.40289 11.0113 2.5164C11.1244 2.62991 11.2141 2.7647 11.2752 2.91304C11.3363 3.06138 11.3677 3.22036 11.3676 3.38089C11.3677 3.54142 11.3363 3.70041 11.2752 3.84875C11.2141 3.99709 11.1244 4.13187 11.0113 4.24538C10.8983 4.35889 10.764 4.44891 10.6163 4.51028C10.4685 4.57164 10.3101 4.60315 10.1502 4.60301C9.99032 4.60315 9.83196 4.57164 9.6842 4.51028C9.53644 4.44891 9.40219 4.35889 9.28912 4.24538C9.17605 4.13187 9.08638 3.99709 9.02526 3.84875C8.96413 3.70041 8.93274 3.54142 8.93288 3.38089C8.93274 3.22036 8.96413 3.06138 9.02526 2.91304C9.08638 2.7647 9.17605 2.62991 9.28912 2.5164C9.40219 2.40289 9.53644 2.31287 9.6842 2.25151C9.83196 2.19014 9.99032 2.15863 10.1502 2.15877Z" fill="url(#paint0_linear_118_485)"/>
<path d="M14.0828 27.904C21.1738 27.904 20.731 24.8169 20.731 24.8169L20.7231 21.6186H13.9562V20.6584H23.4107C23.4107 20.6584 27.9482 21.175 27.9482 13.992C27.9482 6.80906 23.9878 7.0638 23.9878 7.0638H21.6242V10.3969C21.6242 10.3969 21.7516 14.3729 17.7269 14.3729H11.0155C11.0155 14.3729 7.24475 14.3117 7.24475 18.0316V24.182C7.24475 24.182 6.67218 27.904 14.0827 27.904M17.8139 25.7534C17.654 25.7536 17.4956 25.722 17.3479 25.6607C17.2001 25.5993 17.0658 25.5093 16.9528 25.3958C16.8397 25.2823 16.75 25.1475 16.6889 24.9992C16.6278 24.8508 16.5964 24.6918 16.5965 24.5313C16.5964 24.3708 16.6278 24.2118 16.6889 24.0634C16.75 23.9151 16.8397 23.7803 16.9527 23.6667C17.0658 23.5532 17.2001 23.4632 17.3478 23.4018C17.4956 23.3404 17.654 23.3089 17.8139 23.3091C17.9738 23.3089 18.1321 23.3404 18.2799 23.4018C18.4277 23.4632 18.5619 23.5532 18.675 23.6667C18.7881 23.7802 18.8777 23.915 18.9389 24.0633C19 24.2117 19.0314 24.3707 19.0312 24.5312C19.0314 24.6917 19 24.8507 18.9389 24.999C18.8777 25.1474 18.7881 25.2822 18.675 25.3957C18.5619 25.5092 18.4277 25.5992 18.2799 25.6606C18.1321 25.7219 17.9738 25.7536 17.8139 25.7534Z" fill="url(#paint1_linear_118_485)"/>
<defs>
<linearGradient id="paint0_linear_118_485" x1="268.445" y1="250.917" x2="1658.05" y2="1621.29" gradientUnits="userSpaceOnUse">
<stop stop-color="#387EB8"/>
<stop offset="1" stop-color="#366994"/>
</linearGradient>
<linearGradient id="paint1_linear_118_485" x1="403.447" y1="435.957" x2="1895.46" y2="1840.89" gradientUnits="userSpaceOnUse">
<stop stop-color="#FFE052"/>
<stop offset="1" stop-color="#FFC331"/>
</linearGradient>
</defs>
</svg>
