<svg width="29" height="28" viewBox="0 0 29 28" fill="none" xmlns="http://www.w3.org/2000/svg">
<g clip-path="url(#clip0_118_489)">
<path d="M16.1187 8.48752C15.7906 8.35627 15.2656 8.26877 14.6094 8.24689C13.6906 8.22502 12.6406 8.33439 12.5969 8.35627V12.7313C15.5062 12.8625 15.9875 12.3594 15.9875 12.3594C18.525 11.0688 16.9281 8.81564 16.1187 8.48752Z" fill="#75AADB"/>
<path d="M14.5 0C6.75625 0 0.5 6.25625 0.5 14C0.5 21.7438 6.75625 28 14.5 28C22.2438 28 28.5 21.7438 28.5 14C28.5 6.25625 22.2219 0 14.5 0ZM20.7562 19.6438H18.4375L14.5875 13.8906H12.6188V18.375H14.5875V19.6438H9.57812V18.3969L11.2406 18.375L11.2188 8.33437C11.0437 8.29062 9.57812 8.15937 9.57812 8.15937V7C9.79688 7.21875 11.3063 7.2625 11.3063 7.2625C11.6563 7.28438 12.1594 7.30625 12.4437 7.24062C14.4781 6.86875 16.0312 7.15313 16.0312 7.15313C19.0938 7.85313 19.1375 10.6094 18.2844 12.0969C17.5188 13.3656 16.0312 13.6719 16.0312 13.6719L19.1813 18.4406L20.7562 18.4187V19.6438Z" fill="#75AADB"/>
<path d="M9.59888 19.0472V18.4509L9.997 18.4201C10.2702 18.4009 10.5439 18.3904 10.8178 18.3886H11.2402V8.31163L11.035 8.28385C10.7618 8.25149 10.4882 8.22254 10.2142 8.19701L9.59888 8.13794V7.58888C9.59888 7.07876 9.60478 7.0431 9.68419 7.08576C10.0305 7.27104 12.0248 7.31982 13.147 7.17063C14.0662 7.04857 15.6615 7.07766 16.2172 7.22685C17.4166 7.54885 18.21 8.24316 18.5849 9.29907C18.7418 9.74051 18.7636 10.5781 18.6322 11.0981C18.4346 11.8794 18.1093 12.4211 17.5679 12.8702C17.2438 13.1392 16.5077 13.533 16.2237 13.5899C16.1369 13.6071 16.0548 13.6389 16.0417 13.6601C16.0286 13.6815 16.7249 14.7696 17.5894 16.0781L19.1609 18.4573L19.9556 18.4424L20.7505 18.4275V19.6438L19.6038 19.642L18.4576 19.6405L16.5282 16.7455L14.5995 13.8506H12.5918V18.3884H14.5713V19.6438H9.59888V19.0472ZM15.1022 12.668C15.8626 12.5477 16.6914 12.0612 17.065 11.5168C17.6143 10.7155 17.4013 9.5502 16.5632 8.7721C16.2664 8.49648 16.0809 8.41554 15.5145 8.31273C15.0499 8.22829 13.6202 8.21341 12.9538 8.28604L12.6161 8.32279L12.6034 10.5284L12.5909 12.7339L12.7484 12.7571C13.0473 12.8008 14.645 12.7407 15.1022 12.668Z" fill="white" stroke="white" stroke-width="0.0985"/>
</g>
<defs>
<clipPath id="clip0_118_489">
<rect width="28" height="28" fill="white" transform="translate(0.5)"/>
</clipPath>
</defs>
</svg>
