<?xml version="1.0" standalone="no"?>
<!DOCTYPE svg PUBLIC "-//W3C//DTD SVG 20010904//EN"
 "http://www.w3.org/TR/2001/REC-SVG-20010904/DTD/svg10.dtd">
<svg version="1.0" xmlns="http://www.w3.org/2000/svg"
 width="400.000000pt" height="400.000000pt" viewBox="0 0 400.000000 400.000000"
 preserveAspectRatio="xMidYMid meet">

<g transform="translate(0.000000,400.000000) scale(0.100000,-0.100000)"
fill="#318cdd" stroke="none">
<path d="M3413 3803 c-29 -11 -10 -23 37 -23 l50 0 0 -135 c0 -113 2 -135 15
-135 13 0 15 22 15 135 l0 135 50 0 c28 0 50 5 50 10 0 17 -31 24 -41 9 -7
-12 -9 -12 -9 1 0 12 -2 12 -9 2 -4 -7 -12 -12 -17 -11 -22 4 -34 -2 -35 -18
0 -12 -2 -13 -6 -5 -3 7 1 20 9 29 11 15 11 16 -7 9 -38 -15 -99 -20 -91 -8 8
13 7 13 -11 5z"/>
<path d="M3680 3661 c0 -95 4 -151 10 -151 7 0 9 51 8 140 -2 110 0 140 10
140 7 0 11 -4 8 -9 -7 -11 27 -114 35 -107 3 4 6 -6 6 -21 1 -40 42 -143 57
-143 15 0 60 126 51 141 -4 5 -2 9 4 9 6 0 18 25 26 55 11 37 20 53 28 48 7
-4 6 1 -2 10 -8 10 -11 21 -7 24 17 17 23 -28 20 -141 -3 -66 -6 -127 -9 -133
-2 -7 2 -13 11 -13 12 0 14 22 12 148 -3 137 -4 147 -22 147 -15 0 -27 -22
-58 -110 -22 -60 -41 -123 -43 -139 -4 -30 -14 -47 -16 -28 -2 15 -3 20 -12
55 -4 15 -12 27 -18 27 -6 0 -7 5 -4 10 5 8 -39 166 -49 176 0 1 -11 5 -23 8
l-23 7 0 -150z"/>
<path d="M1865 3793 c-113 -10 -266 -37 -360 -64 -91 -26 -142 -45 -274 -100
-21 -9 -22 -12 -10 -21 11 -8 10 -9 -4 -4 -28 9 -237 -110 -237 -134 0 -16 10
-11 33 16 l22 25 1 -30 c1 -18 -4 -32 -13 -35 -8 -3 -11 -1 -8 4 3 6 2 10 -4
10 -5 0 -13 -4 -16 -10 -3 -5 -11 -10 -16 -10 -6 0 -8 4 -4 9 13 22 -13 17
-44 -8 -22 -18 -31 -32 -26 -41 5 -9 9 -9 14 -1 5 8 13 5 25 -8 12 -13 14 -21
6 -26 -6 -3 -9 -1 -8 6 2 6 -3 14 -10 16 -7 3 -11 -1 -10 -9 2 -7 -4 -13 -12
-13 -24 -1 -42 -16 -36 -32 3 -8 2 -12 -2 -9 -11 6 -42 -30 -34 -39 4 -3 -1
-3 -9 0 -9 3 -22 -1 -29 -9 -7 -9 -17 -13 -22 -10 -6 4 -14 0 -19 -7 -6 -10
-9 -10 -9 -2 0 12 39 39 51 36 4 -1 6 5 5 14 0 9 6 18 14 21 13 5 13 3 0 -13
-13 -16 -13 -18 0 -13 9 3 14 15 12 29 -1 18 0 21 7 9 6 -8 13 -11 18 -7 4 5
1 12 -6 16 -9 6 -10 11 -2 15 6 4 11 2 11 -4 0 -6 5 -8 11 -4 8 4 7 9 -2 16
-11 7 -10 8 4 4 13 -4 16 -2 11 7 -5 8 -2 7 9 -2 10 -8 20 -11 23 -8 3 3 -4
11 -16 17 -20 10 -30 3 -116 -82 -52 -51 -96 -102 -98 -113 -2 -11 -9 -20 -17
-20 -16 -1 -13 -26 4 -37 6 -4 17 -2 23 3 8 6 13 5 17 -4 7 -18 -45 -17 -56 1
-7 11 -13 10 -28 -4 -15 -13 -16 -20 -8 -31 7 -7 13 -24 14 -37 2 -18 -2 -23
-21 -22 -12 1 -26 5 -30 9 -4 3 3 5 14 2 27 -5 38 11 22 30 -14 17 -24 6 -73
-72 -22 -34 -24 -42 -11 -47 8 -3 12 -1 9 4 -3 5 -2 17 3 26 6 12 9 8 9 -15 0
-26 -4 -30 -22 -27 -16 3 -26 -6 -44 -36 -13 -24 -17 -38 -9 -33 7 3 5 0 -5
-8 -10 -8 -33 -50 -51 -93 -38 -91 -53 -137 -37 -114 9 12 10 10 9 -12 -2 -19
-6 -24 -14 -17 -16 13 -60 -138 -89 -304 -27 -157 -37 -342 -25 -487 6 -74 14
-144 17 -155 6 -20 8 -30 11 -92 1 -18 6 -33 11 -33 5 0 7 10 3 22 -3 13 -1
19 6 15 11 -7 10 -20 -3 -51 -6 -13 -4 -21 3 -24 7 -2 10 -8 6 -13 -7 -12 31
3 141 53 108 51 103 47 85 58 -13 9 -13 10 0 11 10 0 8 3 -5 9 -18 8 -18 9 -2
9 10 1 15 6 12 11 -9 15 8 12 31 -5 18 -14 18 -14 -3 -9 -20 6 -23 -2 -14 -34
3 -7 199 104 214 122 10 11 16 15 12 8 -5 -10 2 -9 25 3 25 13 30 19 19 26
-22 14 -32 11 -24 -8 5 -15 4 -16 -6 -5 -21 20 3 37 31 22 19 -10 30 -7 83 26
34 20 90 57 125 81 35 23 66 43 70 43 4 0 21 12 37 26 31 27 15 23 -20 -5 -20
-16 -20 -16 -1 7 17 19 10 33 -8 15 -12 -12 -76 -31 -76 -22 0 5 12 11 27 14
16 4 35 10 44 14 8 5 28 7 44 6 23 -3 51 13 139 79 61 46 125 96 141 112 17
15 30 26 30 24 0 -2 12 4 27 14 15 10 25 23 21 29 -3 6 -1 7 5 3 12 -7 79 70
74 86 -1 5 2 6 8 3 8 -5 5 -14 -7 -28 -33 -39 129 106 244 217 62 60 110 113
106 119 -3 6 -2 7 4 4 8 -5 109 92 226 219 35 37 36 41 15 39 -15 -1 -22 -8
-21 -20 1 -12 -2 -14 -10 -6 -8 8 -8 14 1 23 7 7 8 17 2 28 -7 13 -4 16 20 16
16 -1 31 -4 35 -8 4 -3 -4 -5 -18 -4 -18 2 -24 -1 -20 -11 4 -10 9 -11 19 -2
8 6 14 8 14 4 0 -4 7 -2 15 5 8 7 12 17 8 23 -3 5 -1 7 5 3 13 -8 26 10 16 25
-4 8 -9 7 -15 -2 -5 -9 -7 -3 -5 16 3 22 8 29 21 27 13 -3 16 1 12 12 -4 9 -3
16 2 16 5 0 11 -9 14 -20 3 -13 1 -18 -5 -13 -7 3 -8 1 -4 -5 4 -7 8 -12 10
-12 1 0 24 26 51 57 28 31 44 54 37 49 -6 -4 -12 -3 -12 3 0 5 9 13 20 16 29
9 25 28 -5 23 -14 -3 -25 -1 -25 4 0 5 15 8 33 7 21 -2 31 1 29 9 -1 7 2 11 7
10 10 -3 81 86 81 101 0 6 4 11 10 11 11 0 220 314 227 341 5 18 -5 24 -34 20
-7 -1 -13 3 -13 8 0 6 -45 25 -101 42 -75 24 -103 29 -112 20 -15 -15 -48 -13
-71 4 -17 13 -17 15 -4 15 9 0 20 -4 23 -10 3 -5 15 -10 26 -10 11 0 18 4 15
9 -7 11 -124 34 -136 26 -6 -3 -10 -1 -10 5 0 6 -17 10 -37 10 -21 0 -74 4
-118 9 -78 9 -228 11 -310 4z m233 -10 c-10 -3 -18 -8 -18 -11 0 -4 -65 -7
-144 -7 -149 0 -177 6 -78 16 67 6 265 8 240 2z m66 -12 c4 -5 -3 -7 -14 -4
-23 6 -26 13 -6 13 8 0 17 -4 20 -9z m59 2 c-7 -2 -21 -2 -30 0 -10 3 -4 5 12
5 17 0 24 -2 18 -5z m-476 -9 c-3 -3 -12 -4 -19 -1 -8 3 -5 6 6 6 11 1 17 -2
13 -5z m-97 -28 c0 -2 -13 -6 -29 -8 -17 -2 -28 -1 -25 4 5 8 54 12 54 4z
m-80 -16 c11 -7 5 -9 -20 -5 l-35 5 33 -15 c43 -20 41 -29 -2 -11 -24 10 -36
11 -38 4 -5 -14 -68 -18 -68 -5 0 5 10 7 21 4 13 -4 29 2 42 14 23 21 44 24
67 9z m1006 -11 c45 -12 44 -29 -1 -28 l-20 0 20 10 c15 7 8 8 -25 5 -30 -3
-38 -2 -25 3 18 8 17 9 -10 13 -23 4 -25 5 -7 7 13 0 44 -4 68 -10z m-109 -5
c-3 -3 -12 -4 -19 -1 -8 3 -5 6 6 6 11 1 17 -2 13 -5z m-834 -11 c-7 -2 -21
-2 -30 0 -10 3 -4 5 12 5 17 0 24 -2 18 -5z m797 -3 c0 -5 -5 -10 -11 -10 -5
0 -7 5 -4 10 3 6 8 10 11 10 2 0 4 -4 4 -10z m-1080 -40 c8 -5 11 -10 5 -10
-5 0 -17 5 -25 10 -8 5 -10 10 -5 10 6 0 17 -5 25 -10z m1375 -18 c-10 -2 -25
3 -33 12 -15 14 -13 15 17 3 23 -8 28 -13 16 -15z m-1410 1 c-11 -3 -25 -9
-31 -14 -7 -5 -11 -3 -11 6 0 10 10 15 31 14 21 -1 25 -3 11 -6z m-60 -13 c3
-5 1 -10 -4 -10 -6 0 -11 5 -11 10 0 6 2 10 4 10 3 0 8 -4 11 -10z m1425 0 c0
-5 -2 -10 -4 -10 -3 0 -8 5 -11 10 -3 6 -1 10 4 10 6 0 11 -4 11 -10z m-1345
-10 c13 -6 15 -9 5 -9 -8 0 -22 4 -30 9 -18 12 -2 12 25 0z m1335 -22 c20 -21
21 -22 18 -3 -2 12 3 21 14 23 17 3 17 2 1 -27 -10 -17 -20 -25 -24 -19 -9 15
-29 1 -29 -20 0 -15 2 -15 11 -2 7 10 9 11 7 2 -6 -25 -23 -17 -26 12 -2 18 0
26 7 21 15 -9 14 8 -1 23 -7 7 -9 12 -5 12 3 0 16 -10 27 -22z m-1501 -17
l-23 -18 22 -7 c39 -13 24 -21 -38 -22 -33 0 -60 1 -60 3 0 2 20 13 45 24 24
11 47 24 50 29 3 6 11 10 17 10 5 0 0 -8 -13 -19z m1421 -76 c5 3 12 0 15 -6
5 -7 0 -10 -11 -7 -10 2 -19 10 -20 18 0 9 1 10 3 2 3 -7 8 -10 13 -7z m58 7
c16 12 16 11 2 -7 -8 -11 -23 -29 -32 -39 -10 -11 -18 -25 -18 -32 0 -18 -27
-37 -35 -24 -4 6 -1 9 6 8 6 -2 14 3 17 11 2 8 0 11 -6 7 -6 -3 -14 -1 -18 5
-4 7 -3 9 4 5 12 -7 62 41 58 58 -2 6 -1 7 2 3 2 -4 11 -2 20 5z m-67 -39 c13
-16 12 -17 -3 -4 -17 13 -22 21 -14 21 2 0 10 -8 17 -17z m-1625 -37 c0 -20
-3 -22 -17 -13 -17 11 -14 17 17 37 0 0 0 -11 0 -24z m1586 -80 c5 3 4 -3 -4
-15 -7 -12 -14 -17 -16 -11 -6 17 -22 0 -22 -23 0 -12 -16 -40 -35 -62 -19
-22 -35 -36 -35 -31 0 5 -8 2 -17 -5 -16 -12 -17 -12 -6 2 9 11 10 25 4 47 -7
24 -6 30 4 26 7 -3 16 -12 19 -20 3 -9 1 -12 -4 -9 -11 7 -14 -8 -3 -18 9 -9
43 23 43 40 0 8 5 11 12 7 8 -5 9 3 5 29 -3 20 -2 39 4 42 5 3 6 -2 3 -12 -4
-15 -2 -14 13 3 10 12 20 18 21 13 2 -5 8 -6 14 -3z m-1667 -55 c-3 -6 -11
-11 -16 -11 -5 0 -4 6 3 14 14 16 24 13 13 -3z m-115 -51 c8 -5 11 -12 7 -17
-5 -4 -12 -1 -17 7 -6 8 -10 10 -10 5 0 -6 6 -17 13 -24 10 -11 9 -13 -5 -8
-9 3 -19 3 -22 -1 -4 -3 -13 -7 -21 -8 -11 -2 -9 6 7 26 26 33 27 33 48 20z
m-50 -64 c0 -2 -8 -10 -17 -17 -16 -13 -17 -12 -4 4 13 16 21 21 21 13z m1635
-56 c4 -11 11 -17 17 -14 6 4 8 2 5 -4 -14 -21 -59 0 -50 23 7 21 21 19 28 -5z
m-1790 -209 c0 -26 -22 -35 -46 -20 -12 8 -12 10 0 18 7 5 11 13 8 19 -4 5 4
9 16 8 16 -1 22 -7 22 -25z m1587 -66 c-15 -17 -29 -30 -31 -29 -2 2 4 13 14
24 10 11 16 23 13 26 -3 3 -15 -6 -26 -20 -11 -15 -23 -26 -27 -26 -4 0 -2 6
4 14 9 11 9 16 0 21 -16 11 3 20 45 21 l36 1 -28 -32z m-1669 -42 c-4 -11 -8
-13 -11 -5 -2 7 -9 9 -15 5 -7 -4 -6 1 2 10 16 20 33 13 24 -10z m1567 -24 c0
-5 -4 -9 -10 -9 -5 0 -10 5 -10 12 0 6 -3 8 -6 5 -4 -4 -2 -12 4 -20 16 -19 9
-45 -21 -73 -25 -23 -29 -24 -43 -9 -21 20 -11 30 29 30 23 0 31 4 29 15 -10
40 -11 54 -6 61 6 10 34 0 34 -12z m32 -10 c-18 -21 -32 -25 -32 -8 0 5 5 7
12 3 7 -5 9 -2 5 8 -7 20 0 28 18 22 11 -4 10 -10 -3 -25z m-138 -109 c-5 -5
-10 3 -11 18 -1 22 0 24 9 8 6 -10 6 -22 2 -26z m-55 -37 c9 -16 12 -16 21 -3
5 8 10 10 10 4 0 -6 -7 -17 -15 -24 -11 -9 -15 -10 -15 -1 0 8 -8 10 -20 6
-11 -4 -20 -2 -20 4 0 6 3 10 8 10 19 -3 25 2 12 11 -9 6 -10 10 -3 10 7 0 17
-8 22 -17z m-1484 -45 c2 -17 -1 -41 -5 -52 -5 -12 -9 -16 -9 -9 -1 6 -4 20
-7 30 -5 15 -4 16 5 3 9 -11 10 -4 5 30 -4 25 -3 42 1 38 4 -4 9 -22 10 -40z
m1470 2 c3 -5 1 -10 -4 -10 -6 0 -11 5 -11 10 0 6 2 10 4 10 3 0 8 -4 11 -10z
m-19 -38 c-11 -11 -18 -11 -36 -2 -27 14 -40 4 -16 -13 16 -12 16 -13 -3 -13
-11 0 -17 4 -15 8 3 4 1 8 -4 8 -5 0 -9 6 -9 13 0 9 15 13 48 13 41 -1 46 -3
35 -14z m-1495 -43 c-5 -13 -10 -19 -10 -12 -1 15 10 45 15 40 3 -2 0 -15 -5
-28z m1443 -7 c-5 -4 -12 -11 -15 -15 -3 -5 -9 -2 -12 5 -3 9 3 14 15 15 11 1
16 -1 12 -5z m-34 -24 c0 -4 -6 -8 -14 -8 -8 0 -17 4 -20 8 -2 4 4 8 15 8 10
0 19 -4 19 -8z m-39 -19 c8 -16 8 -20 0 -14 -7 4 -18 2 -25 -4 -10 -8 -12 -6
-10 12 3 28 2 27 14 27 5 0 14 -10 21 -21z m-1399 -51 c-8 -8 -9 -4 -5 13 4
13 8 18 11 10 2 -7 -1 -18 -6 -23z m1368 -2 c-25 -23 -40 -25 -40 -4 0 6 3 8
6 5 4 -3 16 0 28 8 31 22 34 18 6 -9z m-46 -22 c6 -17 -7 -26 -27 -18 -22 8
-18 42 4 37 10 -3 20 -11 23 -19z m-1327 -66 c-3 -8 -6 -5 -6 6 -1 11 2 17 5
13 3 -3 4 -12 1 -19z m1249 -6 c-3 -19 -33 -35 -41 -22 -4 6 -3 9 2 8 4 -2 8
2 8 7 0 6 -4 9 -8 7 -5 -1 -6 1 -3 6 8 14 44 9 42 -6z m-1254 -77 c-2 -14 -9
-25 -14 -25 -5 0 -7 3 -5 8 2 4 7 15 10 25 9 25 15 21 9 -8z m1076 8 c-10 -2
-18 -9 -18 -15 0 -6 -3 -9 -6 -5 -10 10 6 27 24 26 15 -1 15 -2 0 -6z m52 -3
c0 -5 -5 -10 -11 -10 -5 0 -7 5 -4 10 3 6 8 10 11 10 2 0 4 -4 4 -10z m-1 -34
c-19 -17 -36 -27 -37 -23 -5 11 19 38 28 32 5 -3 11 4 15 15 4 11 11 17 17 14
6 -4 -3 -19 -23 -38z m-49 -1 c-7 -8 -10 -23 -8 -33 3 -12 -2 -24 -14 -31 -11
-7 -18 -9 -15 -4 3 5 -10 9 -29 9 -35 0 -45 -10 -19 -20 8 -3 15 -9 15 -13 -1
-13 -80 -65 -80 -53 0 6 -5 8 -10 5 -6 -4 -8 -10 -6 -14 3 -4 -1 -8 -8 -8 -7
0 -12 10 -10 21 1 22 6 23 38 10 13 -5 17 -4 13 3 -4 6 1 10 11 9 9 0 16 5 15
12 -2 6 5 12 14 12 15 0 15 1 -2 13 -25 19 -10 39 23 31 21 -4 24 -3 12 5 -12
9 -10 11 10 9 17 -2 25 3 28 17 5 23 23 48 30 40 3 -2 -1 -11 -8 -20z m-1073
-27 c-3 -8 -6 -5 -6 6 -1 11 2 17 5 13 3 -3 4 -12 1 -19z m-15 -73 c3 -33 4
-50 1 -37 -2 12 -8 22 -13 22 -5 0 -8 23 -8 51 2 64 14 43 20 -36z m-13 -81
c1 11 3 17 6 14 9 -9 -6 -58 -16 -52 -5 3 -9 20 -8 37 1 31 1 31 9 7 6 -19 8
-21 9 -6z m28 -56 c-2 -13 -4 -3 -4 22 0 25 2 35 4 23 2 -13 2 -33 0 -45z
m753 38 c0 -2 -7 -7 -16 -10 -8 -3 -12 -2 -9 4 6 10 25 14 25 6z m24 -55 c-10
-10 -21 -16 -24 -14 -3 3 4 11 14 19 28 20 33 17 10 -5z m-802 -75 c0 -25 -2
-49 -5 -53 -4 -3 -7 17 -7 45 0 27 -3 59 -6 69 -5 16 -4 16 5 2 6 -9 12 -38
13 -63z m15 32 c-3 -8 -6 -5 -6 6 -1 11 2 17 5 13 3 -3 4 -12 1 -19z m693 18
c0 -2 -9 -6 -20 -9 -11 -3 -20 -1 -20 4 0 5 9 9 20 9 11 0 20 -2 20 -4z m7
-22 c-3 -3 -12 -4 -19 -1 -8 3 -5 6 6 6 11 1 17 -2 13 -5z m-24 -25 c5 -3 2
-9 -5 -12 -9 -3 -14 3 -15 15 -1 11 1 16 5 12 4 -5 11 -12 15 -15z m-69 -51
c-3 -5 -12 -4 -20 3 -19 16 -18 18 6 12 11 -3 17 -9 14 -15z m-69 2 c16 -7 14
-8 -12 -7 -17 1 -29 5 -26 10 5 9 12 8 38 -3z m-548 -72 c-3 -7 -5 -2 -5 12 0
14 2 19 5 13 2 -7 2 -19 0 -25z m398 2 c-3 -5 1 -10 9 -10 30 0 25 -18 -12
-42 -20 -14 -48 -28 -62 -31 l-25 -7 25 13 c48 24 68 41 63 54 -3 7 -12 13
-20 13 -10 0 -13 -6 -9 -16 6 -14 4 -15 -9 -4 -15 12 -14 15 7 26 28 16 41 17
33 4z m72 -6 c0 -9 -8 -9 -29 -2 -35 13 -35 15 0 14 16 -1 29 -6 29 -12z
m-237 -74 c-8 -5 -19 -10 -25 -10 -5 0 -3 5 5 10 8 5 20 10 25 10 6 0 3 -5 -5
-10z m0 -54 c0 -2 -7 -7 -16 -10 -8 -3 -12 -2 -9 4 6 10 25 14 25 6z m-116
-32 c-13 -10 -14 -14 -4 -11 49 16 52 16 25 2 -28 -15 -34 -15 -65 -2 l-35 16
34 -6 c20 -4 32 -2 28 3 -3 6 4 11 15 11 20 2 20 1 2 -13z m-59 -52 c-7 -8
-35 7 -35 18 0 6 7 6 20 -2 10 -7 17 -14 15 -16z"/>
<path d="M1116 3542 c-2 -4 7 -9 22 -10 21 -1 24 0 12 8 -18 12 -27 12 -34 2z"/>
<path d="M526 2914 c-4 -9 -4 -19 -1 -22 3 -3 5 1 5 9 0 11 2 11 10 -1 8 -13
10 -13 10 2 0 23 -17 31 -24 12z"/>
<path d="M1955 2700 c3 -5 11 -10 16 -10 6 0 7 5 4 10 -3 6 -11 10 -16 10 -6
0 -7 -4 -4 -10z"/>
<path d="M1615 2370 c3 -5 11 -10 16 -10 6 0 7 5 4 10 -3 6 -11 10 -16 10 -6
0 -7 -4 -4 -10z"/>
<path d="M2795 3600 c-12 -24 -13 -30 -3 -25 7 3 4 -1 -6 -9 -16 -13 -17 -19
-8 -28 9 -9 12 -9 12 2 0 7 2 11 5 8 3 -3 3 -13 -1 -22 -6 -15 -7 -15 -19 0
-10 15 -15 11 -38 -31 -15 -26 -24 -52 -20 -58 3 -5 2 -7 -4 -4 -6 4 -22 -15
-36 -41 -14 -26 -53 -90 -86 -142 -51 -81 -58 -97 -45 -106 13 -10 13 -12 -2
-18 -23 -9 -31 -7 -14 4 8 5 10 10 4 10 -6 0 -28 -25 -48 -55 -20 -30 -34 -55
-32 -55 2 0 -11 -16 -30 -37 -18 -20 -31 -40 -29 -44 3 -4 1 -9 -4 -11 -4 -1
-21 -22 -37 -44 -16 -23 -49 -68 -74 -100 -49 -64 -74 -103 -42 -66 12 13 26
20 36 16 9 -3 16 -1 16 6 0 6 -4 8 -10 5 -5 -3 -10 -2 -10 4 0 18 18 21 24 4
4 -9 0 -23 -9 -32 -12 -12 -15 -12 -15 -2 0 11 -5 9 -20 -4 -11 -10 -19 -23
-18 -29 2 -18 -13 -46 -23 -40 -11 6 -12 25 -1 21 4 -1 8 2 10 8 2 5 0 11 -5
12 -4 1 -30 -28 -58 -64 -27 -37 -113 -139 -190 -226 -207 -234 -232 -264
-209 -244 11 9 24 14 27 10 4 -3 7 4 7 16 0 15 5 21 18 19 10 -2 17 3 17 14 0
9 4 20 8 24 4 4 7 -2 7 -13 0 -23 -23 -47 -35 -35 -4 4 -6 0 -3 -8 3 -8 10
-15 15 -15 6 0 14 -3 17 -6 3 -3 -9 -5 -27 -4 -17 1 -40 -4 -49 -12 -9 -8 -22
-12 -28 -8 -7 4 -14 -2 -17 -14 -3 -11 -9 -18 -14 -15 -5 3 -6 -2 -2 -11 4
-12 8 -13 13 -5 4 6 10 11 14 11 17 -2 17 0 5 17 -13 16 -13 16 7 -1 31 -26
26 -44 -10 -42 -32 2 -59 -11 -51 -25 3 -5 1 -11 -5 -15 -7 -4 -7 -12 0 -26
17 -30 4 -22 -17 12 -17 25 -22 28 -32 15 -9 -11 -9 -16 0 -22 8 -4 9 -3 5 4
-11 18 0 14 15 -5 13 -15 11 -16 -12 -10 -22 6 -36 -3 -95 -59 -38 -35 -120
-108 -182 -162 -63 -53 -125 -107 -138 -119 -27 -25 -32 -53 -8 -53 8 0 12 -5
9 -11 -5 -7 -13 -4 -26 7 -10 9 -16 22 -12 28 4 5 -21 -12 -55 -38 -57 -45
-80 -74 -49 -63 6 2 11 10 9 16 -1 8 4 7 18 -1 22 -14 25 -24 10 -33 -6 -4
-10 -3 -9 2 3 20 -2 27 -11 13 -7 -12 -13 -12 -27 -4 -15 9 -29 3 -83 -37 -36
-27 -72 -55 -81 -64 -9 -8 -20 -15 -25 -15 -5 0 -20 -10 -34 -21 l-25 -21 27
16 c15 9 34 13 42 10 9 -3 20 3 28 15 17 28 26 26 20 -4 -2 -14 -11 -25 -20
-25 -8 0 -25 -8 -36 -17 -20 -17 -20 -17 -7 0 8 9 11 20 8 23 -9 9 -48 -22
-39 -31 4 -4 -2 -3 -12 2 -15 8 -31 2 -82 -30 -35 -22 -62 -42 -60 -44 2 -3
22 7 44 21 28 17 42 22 45 13 2 -7 8 -8 13 -4 5 4 3 12 -5 16 -10 7 -10 9 1
14 10 3 14 -3 14 -23 0 -21 -4 -26 -14 -22 -9 3 -13 1 -9 -4 3 -6 -4 -11 -15
-11 -20 -2 -20 -1 -2 12 29 22 4 18 -34 -5 -18 -11 -37 -18 -42 -15 -15 9 -52
-15 -46 -30 3 -8 0 -17 -6 -21 -7 -4 -7 -9 1 -14 7 -3 -6 -6 -28 -6 -21 1 -37
5 -34 9 3 5 -27 -9 -66 -30 -61 -33 -68 -40 -54 -50 9 -7 19 -10 24 -8 9 6 23
-14 15 -22 -3 -3 -13 0 -22 8 -20 17 -19 12 24 -66 58 -107 96 -164 154 -234
l27 -32 53 38 c29 21 55 41 56 45 2 5 8 8 14 8 5 0 25 12 44 26 24 18 31 30
25 38 -7 8 -4 12 9 12 10 0 16 -4 13 -10 -5 -8 24 14 130 99 20 17 37 33 37
37 0 12 -49 -17 -54 -32 -3 -12 -4 -12 -5 1 -1 23 20 38 58 43 17 2 42 15 56
30 13 14 28 26 32 26 4 1 35 26 68 56 49 44 57 56 45 64 -12 8 -9 10 10 8 22
-3 25 1 26 32 0 19 -3 42 -7 51 -9 17 6 47 18 36 4 -5 7 -20 8 -34 0 -18 6
-27 21 -29 27 -4 136 106 140 141 2 26 -11 35 -19 13 -3 -7 -5 -4 -4 8 1 16 7
21 28 20 15 -1 31 -5 36 -10 5 -5 2 -6 -6 -1 -10 6 -12 4 -6 -6 7 -12 6 -12
-7 -1 -14 11 -16 11 -14 -2 1 -9 4 -18 7 -21 9 -8 271 264 264 275 -4 6 -1 9
7 8 7 -2 12 3 10 10 -1 8 1 11 6 8 5 -3 19 6 30 19 30 34 28 44 -3 15 -30 -28
-44 -21 -21 12 9 12 16 16 16 9 0 -11 3 -11 15 -1 8 7 15 9 15 5 0 -4 12 4 26
18 14 14 24 27 22 29 -2 2 11 17 27 34 58 58 137 154 140 171 1 10 7 17 13 16
15 -4 103 117 95 130 -3 5 -2 7 4 4 5 -3 23 12 39 34 16 23 41 56 57 74 21 26
24 34 13 38 -11 4 -13 1 -10 -11 5 -14 4 -15 -5 -2 -7 11 -6 21 4 37 17 25 19
37 6 29 -4 -3 -8 4 -7 17 1 17 7 22 34 23 18 1 35 -3 38 -8 3 -5 0 -7 -8 -6
-7 2 -12 -5 -12 -14 1 -10 -3 -15 -8 -12 -5 3 -7 12 -4 19 3 9 -2 13 -15 12
-22 -2 -23 -6 -4 -30 7 -11 11 -26 8 -35 -9 -24 -1 -16 49 53 59 81 64 90 47
81 -8 -4 -4 1 8 11 40 33 194 274 188 294 -3 9 -1 20 5 24 5 3 10 11 10 16 0
6 -4 8 -8 5 -11 -6 -9 60 2 71 4 4 5 -6 1 -22 -5 -24 -4 -27 5 -15 9 12 10 11
5 -7 -4 -15 -2 -23 6 -23 8 0 6 -6 -4 -18 -10 -10 -17 -23 -17 -28 0 -5 9 2
19 15 10 14 16 31 13 40 -3 8 -1 12 5 8 5 -3 23 17 40 46 96 165 101 175 91
188 -7 10 -8 9 -3 -6 4 -14 3 -17 -5 -9 -7 7 -7 19 -2 34 l9 24 7 -25 c7 -23
8 -22 29 17 84 156 95 181 82 181 -7 0 -16 -16 -20 -36 l-7 -36 -14 28 c-15
28 -11 52 7 42 5 -4 9 -1 9 4 0 6 10 11 23 11 18 0 30 16 66 90 25 49 43 92
40 94 -2 2 -31 17 -65 34 -58 29 -62 30 -79 14 -18 -16 -18 -16 -6 1 8 9 11
20 8 23 -3 3 -13 -9 -22 -26z m139 -50 c13 -12 16 -20 8 -20 -7 0 -11 -4 -8
-8 2 -4 0 -14 -6 -22 -8 -12 -9 -12 -4 3 3 9 4 17 2 17 -3 0 -12 3 -22 7 -10
4 -15 2 -11 -3 3 -6 1 -16 -4 -24 -7 -11 -8 -7 -5 14 6 36 15 44 26 26 5 -8
12 -11 15 -8 11 11 -5 28 -25 28 -10 0 -21 4 -25 9 -10 18 39 2 59 -19z m-138
-77 l2 -23 -19 23 c-10 12 -18 17 -19 10 0 -6 5 -15 10 -18 6 -3 10 -10 10
-16 0 -5 -10 1 -21 12 -17 17 -18 23 -8 29 23 15 44 7 45 -17z m104 -18 c-10
-42 -26 -64 -45 -61 -27 4 -28 16 -1 16 16 0 26 5 25 13 -2 13 18 67 25 67 2
0 0 -16 -4 -35z m-145 -13 c-3 -3 -11 0 -18 7 -9 10 -8 11 6 5 10 -3 15 -9 12
-12z m-53 -56 c3 -14 1 -31 -4 -38 -7 -10 -8 -8 -4 5 3 9 1 17 -4 17 -6 0 -10
-5 -10 -12 0 -6 -2 -9 -5 -6 -5 5 14 58 20 58 2 0 5 -11 7 -24z m118 -6 c0 -5
-4 -10 -10 -10 -5 0 -10 5 -10 10 0 6 5 10 10 10 6 0 10 -4 10 -10z m-103 -64
c1 -27 -4 -35 -21 -40 -20 -5 -20 -4 -2 9 10 7 15 18 12 23 -5 9 2 42 8 42 1
0 2 -15 3 -34z m-45 12 c-17 -17 -15 -31 4 -24 9 3 12 2 9 -5 -4 -5 -12 -8
-18 -6 -14 5 -57 -38 -57 -56 0 -7 6 -4 14 5 12 16 13 15 12 -12 -1 -35 -1
-35 -25 -11 -19 19 -18 20 8 52 15 19 30 42 34 52 3 9 12 17 19 17 9 0 9 -3 0
-12z m137 -67 c-8 -11 -20 -23 -29 -26 -9 -4 -7 2 6 17 12 13 19 30 16 38 -3
11 -2 12 8 4 9 -9 9 -16 -1 -33z m-44 -1 c3 -5 1 -10 -4 -10 -6 0 -11 5 -11
10 0 6 2 10 4 10 3 0 8 -4 11 -10z m5 -57 c0 -10 -4 -24 -8 -31 -6 -8 -9 -2
-9 18 0 16 4 30 9 30 4 0 8 -8 8 -17z m-213 -110 c1 -22 -1 -24 -8 -10 -6 9
-7 22 -4 27 9 14 10 13 12 -17z m94 0 c-12 -20 -14 -14 -5 12 4 9 9 14 11 11
3 -2 0 -13 -6 -23z m23 -18 c-8 -28 -9 -45 -3 -45 6 0 7 -5 3 -12 -6 -9 -9 -9
-12 1 -3 10 -6 10 -12 2 -4 -7 -7 3 -7 21 -1 27 1 29 7 13 8 -19 9 -19 9 3 1
22 17 62 25 62 2 0 -2 -20 -10 -45z m56 42 c0 -2 -9 -14 -20 -27 -11 -13 -20
-19 -20 -15 0 5 7 17 17 27 15 17 23 22 23 15z m-231 -49 c-13 -18 -24 -44
-25 -58 -2 -48 -4 -50 -33 -48 -28 2 -28 3 -12 24 9 12 21 21 26 21 6 -1 10 5
10 13 1 16 47 91 53 85 3 -2 -6 -19 -19 -37z m31 -12 c9 -12 8 -15 -8 -13 -12
0 -18 6 -15 14 6 16 8 16 23 -1z m104 -111 c-11 -17 -20 -23 -27 -16 -11 11 0
34 14 26 5 -4 12 1 15 10 4 9 9 14 11 11 3 -2 -3 -16 -13 -31z m-234 -60 c0
-5 -5 -3 -10 5 -8 13 -10 12 -10 -2 0 -10 -4 -18 -9 -18 -5 0 -16 -15 -25 -32
-10 -21 -16 -26 -16 -15 0 28 52 100 61 85 5 -7 9 -17 9 -23z m0 -21 c0 -3 -6
-12 -14 -20 -8 -7 -16 -19 -19 -26 -2 -7 -8 -10 -12 -6 -4 4 1 18 12 32 17 24
33 33 33 20z m-84 -69 c-1 -30 -3 -33 -13 -19 -9 12 -9 21 0 35 6 10 12 19 13
19 1 0 1 -16 0 -35z m173 -74 c-33 -55 -44 -63 -35 -28 l6 22 -11 -22 c-7 -13
-16 -23 -21 -23 -4 0 -8 -5 -8 -11 0 -6 7 -9 14 -6 10 4 13 1 9 -9 -6 -16 -23
-19 -23 -3 0 5 -5 7 -12 3 -7 -5 -8 -3 -3 7 26 43 51 69 61 65 14 -5 27 21 18
35 -3 5 0 8 8 7 8 -2 12 6 11 22 -2 21 -1 22 7 8 8 -13 3 -29 -21 -67z m-69
-21 c-6 -11 -13 -20 -16 -20 -2 0 0 9 6 20 6 11 13 20 16 20 2 0 0 -9 -6 -20z
m-225 -50 c3 -5 1 -10 -4 -10 -6 0 -11 5 -11 10 0 6 2 10 4 10 3 0 8 -4 11
-10z m-45 -91 c0 -11 -5 -30 -11 -41 -8 -15 -8 -22 1 -28 6 -4 -6 -6 -27 -5
-21 2 -41 -2 -44 -7 -3 -5 -9 -2 -12 7 -4 9 -3 13 3 10 6 -3 10 -2 10 3 0 5
11 7 24 5 28 -6 51 26 43 58 -3 10 -1 19 4 19 5 0 9 -9 9 -21z m-40 -35 c-18
-21 -24 -10 -8 15 7 12 14 17 16 11 2 -6 -2 -17 -8 -26z m230 25 c0 8 3 12 6
9 3 -4 -1 -18 -9 -33 l-14 -27 0 31 c0 20 3 27 9 19 6 -10 8 -10 8 1z m-297
-86 c-4 -10 -2 -14 4 -10 15 9 26 -24 13 -37 -8 -8 -9 -6 -5 7 4 10 2 17 -4
17 -10 0 -15 -14 -12 -33 1 -5 -3 -6 -9 -2 -7 4 -7 12 0 24 5 10 7 21 4 24 -3
3 -3 10 1 16 10 17 15 13 8 -6z m-36 -41 c-10 -10 -14 -22 -11 -25 4 -4 1 -13
-6 -22 -9 -11 -9 -15 0 -15 6 0 10 -8 8 -17 -2 -13 -13 -17 -42 -18 -37 0 -39
-2 -43 -35 -4 -45 -18 -59 -39 -38 -14 14 -14 17 1 32 9 9 22 13 28 9 6 -4 8
-1 5 8 -3 8 5 28 18 44 l23 29 20 -25 c11 -13 20 -19 21 -12 0 6 -4 15 -10 18
-5 3 -9 14 -7 23 3 19 40 72 46 66 2 -2 -3 -12 -12 -22z m93 -32 c0 -5 -4 -10
-10 -10 -5 0 -10 5 -10 10 0 6 5 10 10 10 6 0 10 -4 10 -10z m88 3 c-10 -2
-18 -9 -18 -15 0 -6 -3 -9 -6 -5 -10 10 6 27 24 26 15 -1 15 -2 0 -6z m3 -37
c-8 -9 -10 -27 -6 -45 6 -30 -8 -51 -21 -30 -5 8 -3 9 5 5 9 -6 11 1 6 28 -7
33 9 75 23 61 3 -2 -1 -11 -7 -19z m31 -14 c-9 -10 -19 -14 -20 -10 -5 12 19
39 29 33 4 -3 1 -14 -9 -23z m-89 -12 c-3 -12 -8 -19 -11 -16 -5 6 5 36 12 36
2 0 2 -9 -1 -20z m-3 -101 c0 -11 -21 -11 -39 0 -9 6 -5 9 13 9 14 0 26 -4 26
-9z m-5 -21 c5 4 5 2 1 -5 -4 -7 -14 -9 -24 -6 -15 6 -16 5 -3 -13 14 -18 14
-18 -3 -2 -21 18 -13 46 8 29 7 -6 17 -7 21 -3z m-78 -65 c2 -5 -6 -18 -17
-28 -11 -10 -20 -26 -20 -35 0 -9 -11 -27 -25 -40 -14 -13 -25 -18 -25 -12 0
7 9 17 20 24 11 7 20 22 20 33 0 11 9 26 20 33 11 7 20 17 20 22 0 7 -7 7 -20
0 -18 -10 -28 -1 -14 12 8 9 37 3 41 -9z m27 -8 c-9 -14 -18 -25 -20 -25 -2 0
2 11 8 25 6 14 15 25 20 25 5 0 1 -11 -8 -25z m-137 -107 c-3 -8 -6 -5 -6 6
-1 11 2 17 5 13 3 -3 4 -12 1 -19z m-336 -31 c-6 -8 -7 -18 -3 -22 4 -5 2 -5
-4 -2 -7 4 -17 0 -24 -8 -7 -8 -9 -15 -5 -15 4 0 2 -7 -5 -15 -7 -8 -20 -14
-29 -13 -12 2 -16 -5 -17 -27 -2 -58 -3 -59 -19 -45 -10 9 -15 9 -15 1 0 -6
-5 -11 -12 -11 -9 0 -9 3 -1 11 6 6 9 19 6 28 -3 12 -1 11 11 -3 9 -11 19 -17
22 -13 4 4 1 13 -6 22 -10 12 -10 15 0 15 8 0 10 3 7 7 -11 10 13 32 29 26 8
-3 14 1 14 8 0 7 12 26 27 41 27 29 44 39 24 15z m336 -19 c-11 -15 -26 -28
-33 -28 -7 0 -18 -8 -23 -17 -10 -17 -10 -17 -11 -1 0 11 10 20 26 24 16 4 23
12 20 20 -3 8 0 13 7 11 7 -1 11 3 10 9 -1 6 4 11 12 11 9 0 7 -9 -8 -29z
m-63 -3 c-10 -8 -23 -15 -28 -15 -6 0 -1 7 10 15 10 8 23 15 28 15 6 0 1 -7
-10 -15z m-14 -95 c0 -5 -5 -10 -11 -10 -5 0 -7 5 -4 10 3 6 8 10 11 10 2 0 4
-4 4 -10z m-455 -76 c-17 -13 -18 -16 -5 -25 11 -7 7 -8 -14 -3 -23 6 -27 4
-21 -7 5 -8 4 -11 0 -6 -5 4 -17 -1 -27 -10 -14 -12 -17 -13 -13 -2 7 16 74
67 90 68 6 0 1 -6 -10 -15z m318 -60 c-2 -5 -9 -16 -17 -26 -8 -9 -11 -20 -8
-25 4 -4 0 -2 -8 5 -12 11 -13 14 -1 21 9 6 10 11 2 15 -6 4 -9 11 -6 16 7 11
41 6 38 -6z m-366 -11 c-1 -14 -10 -18 -44 -19 -26 0 -39 3 -31 7 7 5 21 6 30
3 9 -3 22 2 30 10 17 19 17 19 15 -1z m-104 -58 c-5 -23 -38 -44 -50 -31 -4 3
1 6 11 6 9 0 21 11 26 25 12 32 19 32 13 0z m101 15 c2 -3 -13 -5 -34 -5 -21
0 -37 3 -34 6 4 8 60 6 68 -1z m276 -20 c-14 -9 -7 -15 14 -11 5 1 4 -5 -4
-13 -7 -9 -18 -16 -24 -16 -6 0 -4 5 4 10 14 9 7 15 -14 11 -5 -1 -4 5 4 13 7
9 18 16 24 16 6 0 4 -5 -4 -10z m50 4 c0 -8 -19 -13 -24 -6 -3 5 1 9 9 9 8 0
15 -2 15 -3z m-414 -49 c-11 -8 -25 -15 -30 -15 -6 0 -2 7 8 15 11 8 25 15 30
15 6 0 2 -7 -8 -15z m-106 -10 c-7 -8 -17 -15 -23 -15 -6 0 -2 7 9 15 25 19
30 19 14 0z m414 -46 c-14 -15 -20 -17 -32 -6 -13 10 -15 9 -9 -5 3 -10 3 -19
-1 -22 -15 -9 -11 33 4 45 8 7 14 8 12 3 -2 -5 2 -10 7 -11 6 -2 11 2 11 7 3
20 4 21 15 15 7 -5 4 -14 -7 -26z m-534 -49 c-8 -5 -10 -10 -5 -10 6 0 3 -5
-5 -10 -25 -16 -31 -11 -13 10 10 11 22 20 28 20 5 0 3 -5 -5 -10z m-10 -45
c-7 -8 -23 -15 -36 -15 -12 0 -26 -5 -29 -10 -4 -6 -11 -8 -16 -4 -5 3 -7 10
-3 15 3 5 10 7 15 4 5 -4 9 -1 9 5 0 6 10 8 24 4 13 -3 27 -1 30 5 4 6 10 11
13 11 3 0 0 -7 -7 -15z m-13 -31 c-3 -3 -12 -4 -19 -1 -8 3 -5 6 6 6 11 1 17
-2 13 -5z m374 -14 c13 -7 19 -7 19 0 0 5 5 10 10 10 6 0 3 -11 -7 -24 -10
-13 -20 -22 -22 -20 -2 2 -9 -4 -16 -13 -11 -14 -12 -13 -10 5 1 12 5 25 10
29 4 5 5 2 1 -4 -5 -9 -2 -11 9 -6 23 8 -1 22 -26 16 -10 -3 -19 0 -19 6 0 14
25 14 51 1z m-37 -82 c-3 -4 -11 -5 -19 -1 -21 7 -19 12 4 10 11 0 18 -5 15
-9z m-114 -89 c11 -8 9 -9 -10 -3 -22 6 -23 5 -11 -10 7 -9 9 -16 3 -16 -12 0
-23 26 -15 34 9 8 16 7 33 -5z m-700 -69 c-6 -11 -15 -20 -20 -20 -4 0 -17 -3
-27 -6 -10 -4 -2 5 17 19 43 31 43 31 30 7z m626 -2 c4 -6 3 -8 -3 -5 -6 4
-16 0 -23 -8 -14 -17 -30 -20 -30 -4 0 5 5 7 10 4 6 -3 13 1 16 9 7 19 20 21
30 4z m-576 -25 c0 -8 -8 -13 -17 -11 -10 1 -24 -1 -30 -5 -8 -5 -13 -4 -13 3
0 6 7 13 15 16 8 4 13 10 10 14 -3 5 4 6 15 3 11 -3 20 -12 20 -20z m496 -28
c0 -14 -6 -27 -13 -29 -6 -3 -10 3 -8 12 2 9 4 23 4 30 1 6 5 12 10 12 5 0 8
-11 7 -25z m-569 9 c-3 -3 -12 -4 -19 -1 -8 3 -5 6 6 6 11 1 17 -2 13 -5z
m123 -14 c0 -5 -4 -10 -10 -10 -5 0 -10 5 -10 10 0 6 5 10 10 10 6 0 10 -4 10
-10z m-113 -21 c2 -17 -1 -18 -12 -9 -8 7 -12 16 -9 21 9 16 20 10 21 -12z
m478 -9 c-3 -5 -13 -10 -21 -10 -8 0 -12 5 -9 10 3 6 13 10 21 10 8 0 12 -4 9
-10z m-479 -67 c18 -50 10 -54 -9 -4 -9 21 -21 42 -27 46 -5 3 -10 11 -10 18
0 21 33 -21 46 -60z m26 32 c-7 -24 -9 -26 -15 -12 -4 10 -1 24 6 32 16 18 18
14 9 -20z m415 -43 c-13 -17 -52 -38 -43 -24 7 12 -21 24 -37 16 -7 -3 -5 0 4
8 22 18 92 18 76 0z m-410 -34 c-3 -8 -6 -5 -6 6 -1 11 2 17 5 13 3 -3 4 -12
1 -19z m338 2 c-3 -5 -1 -10 6 -10 7 0 10 -3 6 -6 -9 -9 -28 6 -22 17 4 5 8 9
11 9 3 0 2 -4 -1 -10z m-260 -40 c3 -6 -1 -7 -9 -4 -10 4 -16 1 -16 -7 0 -7
-3 -10 -6 -6 -7 7 4 27 16 27 5 0 12 -4 15 -10z m199 1 c6 -10 -24 -25 -32
-16 -3 3 0 5 7 5 7 0 9 5 6 10 -3 6 -2 10 4 10 5 0 12 -4 15 -9z m-244 -26
c14 -19 14 -19 -2 -6 -10 7 -18 18 -18 24 0 6 1 8 3 6 1 -2 9 -13 17 -24z
m250 2 c0 -2 -8 -11 -18 -20 -15 -14 -19 -15 -19 -2 0 8 4 12 8 9 4 -2 10 0
14 6 6 10 15 14 15 7z m-214 -46 c-4 -5 0 -11 6 -14 7 -2 9 -8 5 -13 -9 -10
-28 16 -21 28 3 4 7 8 10 8 3 0 3 -4 0 -9z m99 -11 c-9 -14 8 -13 23 2 9 9 12
9 12 1 0 -16 -18 -26 -36 -19 -13 5 -11 26 2 26 3 0 2 -4 -1 -10z m-38 -16
c-3 -3 -12 -4 -19 -1 -8 3 -5 6 6 6 11 1 17 -2 13 -5z m23 -12 c0 -4 -9 -13
-19 -19 -15 -10 -22 -9 -31 2 -9 11 -7 12 8 8 11 -2 23 0 26 6 8 13 16 14 16
3z"/>
<path d="M2444 2985 c-17 -13 -17 -14 -2 -15 9 0 20 5 23 11 11 17 0 20 -21 4z"/>
<path d="M1937 2347 c-3 -8 1 -14 9 -14 16 0 19 13 5 21 -5 3 -11 0 -14 -7z"/>
<path d="M1885 2277 c-4 -10 -5 -21 -1 -24 10 -10 18 4 13 24 -4 17 -4 17 -12
0z"/>
<path d="M1696 1738 c3 -5 10 -6 15 -3 13 9 11 12 -6 12 -8 0 -12 -4 -9 -9z"/>
<path d="M935 1020 c-3 -5 -1 -10 4 -10 6 0 11 5 11 10 0 6 -2 10 -4 10 -3 0
-8 -4 -11 -10z"/>
<path d="M3010 3515 c0 -2 12 -15 26 -28 21 -20 23 -25 10 -30 -9 -4 -13 -1
-10 6 2 7 -5 18 -16 25 -12 7 -20 8 -20 2 0 -5 -34 -85 -75 -177 -53 -119 -72
-170 -64 -179 13 -16 2 -58 -22 -80 -26 -23 -34 -13 -10 12 21 23 37 64 24 64
-15 0 -64 -116 -57 -136 4 -13 3 -15 -3 -6 -11 15 -47 -53 -37 -70 4 -6 3 -8
-2 -5 -13 7 -127 -221 -118 -235 4 -6 3 -8 -2 -5 -5 3 -25 -24 -44 -61 -39
-73 -49 -92 -171 -302 -46 -80 -84 -147 -84 -150 0 -3 -12 -21 -28 -41 -15
-20 -27 -41 -27 -46 0 -6 -7 -16 -15 -23 -8 -7 -15 -17 -15 -22 0 -6 7 -5 15
2 12 10 16 9 21 -5 6 -15 9 -15 20 6 l12 24 -1 -26 c-2 -18 -8 -25 -23 -25
-15 0 -20 5 -16 15 4 10 2 12 -9 5 -8 -5 -17 -9 -22 -9 -11 0 -47 -62 -40 -69
3 -3 11 1 17 9 9 13 11 11 13 -11 0 -15 -2 -23 -5 -18 -15 22 -45 7 -66 -31
-11 -22 -27 -44 -34 -48 -7 -5 -10 -12 -7 -18 4 -5 2 -9 -2 -9 -14 0 -77 -93
-75 -112 0 -10 -5 -18 -11 -19 -16 0 -60 -57 -62 -80 -1 -10 -5 -22 -10 -26
-4 -5 -5 -2 -1 5 18 31 -12 6 -43 -35 -19 -25 -28 -43 -20 -39 8 4 2 -2 -13
-14 -34 -27 -37 -46 -4 -25 17 11 26 13 31 5 4 -6 4 -14 1 -17 -3 -4 -6 0 -6
8 0 11 -2 11 -9 1 -4 -7 -18 -14 -30 -15 -12 -1 -33 -16 -46 -33 -20 -26 -22
-34 -11 -43 7 -6 15 -9 17 -6 3 2 5 -9 4 -25 0 -31 -11 -28 -17 4 -1 11 -9 21
-16 24 -7 2 -10 -2 -6 -12 7 -17 -12 -46 -29 -46 -6 0 -2 6 9 14 10 8 16 17
13 21 -4 3 -26 -17 -50 -46 -24 -28 -59 -69 -77 -90 -20 -22 -31 -43 -26 -50
4 -7 3 -9 -3 -6 -10 6 -59 -38 -57 -51 0 -4 -10 -15 -23 -25 -13 -10 -21 -23
-17 -28 3 -5 2 -8 -3 -7 -5 2 -39 -30 -76 -71 -68 -76 -90 -114 -39 -70 15 13
21 17 14 9 -15 -18 -16 -34 0 -24 6 4 8 3 5 -3 -4 -6 -20 -9 -37 -7 -32 4 -48
-14 -44 -53 1 -15 -4 -23 -14 -23 -12 0 -12 3 -2 15 7 9 10 19 6 23 -4 4 -23
-11 -43 -33 -19 -22 -52 -59 -74 -83 -29 -32 -35 -44 -24 -48 8 -3 19 -2 26 2
8 5 9 3 4 -5 -4 -8 -17 -10 -32 -6 -21 5 -35 -4 -86 -56 -34 -34 -56 -59 -50
-55 9 5 11 2 7 -8 -6 -14 -17 -20 -35 -18 -4 1 -16 -10 -29 -23 l-22 -23 31
-17 c18 -9 37 -13 43 -9 6 4 8 3 4 -4 -8 -14 79 -66 95 -56 7 4 9 3 6 -3 -10
-15 86 -58 256 -114 49 -16 91 -28 95 -27 4 1 14 -1 22 -5 17 -6 94 -22 152
-32 22 -3 47 -1 60 6 20 11 21 10 11 -2 -10 -12 -9 -15 5 -16 9 0 73 -4 142
-8 171 -11 461 17 550 52 8 4 18 6 21 5 26 -5 309 104 309 119 0 13 -9 11 -27
-7 -11 -11 -26 -14 -48 -10 -27 5 -33 3 -31 -10 0 -9 -8 -20 -20 -24 -14 -6
-21 -4 -21 5 0 7 9 11 21 8 20 -4 20 -3 -1 13 -27 20 -30 34 -5 34 13 0 14 -2
4 -9 -8 -5 7 -8 38 -7 33 1 54 6 60 16 7 12 13 12 27 4 21 -13 46 -7 37 8 -4
6 -2 8 4 4 11 -6 81 29 94 49 5 6 8 6 8 0 0 -5 5 -3 10 5 5 8 13 15 18 15 17
0 80 50 75 59 -3 5 -1 6 5 2 13 -8 103 64 201 161 39 39 61 68 54 70 -7 3 -13
9 -13 15 0 7 5 7 13 -1 15 -12 32 4 105 100 42 56 54 82 29 60 -8 -6 -18 -7
-22 -3 -5 4 -6 0 -3 -9 4 -9 2 -22 -3 -30 -7 -11 -9 -11 -9 -1 0 7 -5 10 -11
6 -8 -4 -7 -9 2 -16 12 -8 12 -9 0 -6 -8 2 -15 14 -16 26 -1 11 2 19 6 16 4
-2 14 4 21 14 7 9 23 17 36 16 18 -1 31 13 63 67 22 38 37 74 33 81 -5 7 -3 8
6 3 10 -6 12 -4 7 9 -4 9 -3 15 2 12 4 -3 25 31 45 75 27 62 34 85 26 99 -13
24 -13 42 1 77 10 26 12 26 19 8 5 -14 2 -22 -9 -27 -9 -4 -11 -7 -3 -7 6 -1
12 -9 12 -18 0 -15 -2 -16 -10 -3 -5 8 -10 11 -10 5 0 -5 4 -16 9 -24 6 -9 13
1 25 35 18 54 20 76 5 54 -8 -11 -9 -9 -4 10 4 14 14 30 22 37 11 8 13 21 9
40 -4 19 -4 23 3 14 6 -10 12 2 21 43 6 32 9 60 6 63 -3 4 -6 -1 -6 -11 0 -9
-4 -15 -9 -12 -5 4 -4 19 2 36 9 25 13 27 18 13 4 -12 8 -1 13 30 4 26 5 51 2
56 -4 5 0 11 6 13 21 7 16 543 -5 628 -13 52 -16 57 -13 23 2 -24 0 -46 -5
-49 -5 -3 -9 7 -9 21 0 16 -4 24 -11 20 -5 -4 -3 10 6 31 15 37 12 131 -4 106
-3 -6 -7 6 -7 26 0 33 -27 131 -56 205 -8 21 -13 25 -20 15 -5 -8 -6 -3 -2 15
3 15 2 27 -3 27 -5 0 -10 6 -10 13 -1 24 -51 124 -74 147 -13 13 -18 20 -11
16 10 -6 10 -2 1 18 -7 14 -16 23 -22 19 -6 -3 -7 -1 -3 6 9 14 -64 112 -80
107 -20 -7 -36 12 -38 45 -1 28 -6 34 -23 34 -12 0 -25 3 -29 7 -4 4 -12 3
-19 -2 -8 -7 -11 -1 -10 20 1 16 5 33 10 37 4 5 5 2 0 -6 -5 -9 -4 -12 3 -7 8
5 10 1 6 -11 -4 -14 -3 -15 4 -4 6 8 12 9 16 3 3 -6 1 -12 -6 -14 -7 -3 -8 -7
-2 -11 5 -3 15 -2 22 2 7 4 -16 34 -68 86 -71 71 -81 77 -96 64 -12 -9 -15 -9
-10 -1 9 15 -6 16 -22 0 -8 -8 -12 -8 -12 -1 0 13 28 25 41 17 5 -3 9 -2 9 3
0 11 -68 64 -85 67 -8 1 -18 6 -22 11 -5 4 -1 5 7 0 25 -13 7 2 -33 29 -20 14
-37 23 -37 21z m-10 -93 c-11 -23 -23 -42 -26 -42 -3 0 -3 3 -1 8 2 4 12 24
22 45 10 21 19 36 21 34 2 -2 -5 -22 -16 -45z m36 -4 c4 -6 3 -8 -3 -5 -6 4
-13 -6 -17 -23 -3 -17 -11 -30 -18 -30 -9 0 -9 3 0 12 7 7 12 22 12 35 0 24
14 31 26 11z m110 -15 c-10 -11 -19 -7 -22 10 -2 15 0 16 12 6 8 -6 12 -14 10
-16z m99 -101 c2 -14 -3 -18 -18 -17 -11 1 -22 7 -23 14 -1 6 0 7 2 2 3 -6 12
-7 19 -4 11 4 9 13 -12 41 l-26 37 27 -28 c15 -15 29 -36 31 -45z m-292 -9
c-7 -2 -13 -12 -13 -21 0 -14 2 -15 9 -2 7 9 9 2 7 -23 -2 -21 -7 -41 -11 -45
-5 -4 -6 0 -3 8 3 8 2 24 -3 35 -7 19 -8 19 -8 1 -1 -17 -3 -18 -13 -7 -10 11
-10 14 0 18 6 3 12 13 12 24 0 12 7 19 18 18 10 0 12 -3 5 -6z m328 -10 c13
-16 12 -17 -3 -4 -17 13 -22 21 -14 21 2 0 10 -8 17 -17z m-367 -69 c3 -8 2
-12 -4 -9 -6 3 -10 10 -10 16 0 14 7 11 14 -7z m-34 -64 c0 -5 -2 -10 -4 -10
-3 0 -8 5 -11 10 -3 6 -1 10 4 10 6 0 11 -4 11 -10z m487 -72 c-3 -7 -5 -2 -5
12 0 14 2 19 5 13 2 -7 2 -19 0 -25z m83 -3 c0 -9 -54 13 -58 23 -2 7 8 6 27
-4 17 -9 31 -17 31 -19z m-573 -7 c-3 -8 -6 -5 -6 6 -1 11 2 17 5 13 3 -3 4
-12 1 -19z m548 -18 c-6 -10 -45 -1 -45 10 0 4 11 5 25 2 14 -2 23 -8 20 -12z
m45 -23 c0 -5 -5 -5 -11 -1 -8 4 -9 -1 -5 -17 5 -18 5 -20 -3 -8 -5 8 -8 24
-6 35 2 10 4 21 4 24 2 7 21 -23 21 -33z m-678 -97 c-15 -25 -16 -52 -1 -30 8
12 10 12 7 1 -5 -16 -46 -23 -54 -9 -3 5 0 7 8 6 7 -2 14 7 16 20 2 13 8 20
14 16 7 -5 9 1 5 16 -4 17 -3 20 6 11 9 -9 9 -16 -1 -31z m748 -25 c4 3 10 -2
14 -10 3 -8 0 -17 -6 -21 -7 -4 -8 -3 -4 4 4 7 1 12 -8 12 -10 0 -16 8 -15 23
1 17 2 18 6 4 2 -9 8 -15 13 -12z m35 -66 c4 -11 4 -23 1 -27 -10 -9 -46 -10
-52 0 -3 4 2 8 10 8 9 0 16 9 16 20 0 26 17 26 25 -1z m-859 -26 c-2 -9 -9
-19 -17 -21 -11 -3 -11 -1 1 7 8 6 11 11 7 11 -5 0 -5 5 -2 10 9 15 14 12 11
-7z m-3 -74 c4 8 5 8 3 -1 -4 -18 -26 -22 -26 -4 0 9 -5 16 -11 16 -5 0 -7 5
-3 11 4 8 11 4 19 -11 8 -14 14 -19 18 -11z m911 -15 c3 -8 2 -12 -4 -9 -6 3
-10 10 -10 16 0 14 7 11 14 -7z m16 -105 c-7 -30 -7 -28 -7 20 0 35 3 47 8 34
4 -11 4 -35 -1 -54z m-17 38 c3 -8 2 -19 -3 -26 -5 -9 -9 -4 -12 13 -5 27 6
36 15 13z m-993 -31 c-5 -5 -10 -17 -10 -25 0 -13 2 -14 9 -2 7 10 9 7 8 -11
-2 -16 -8 -25 -22 -26 -14 -1 -16 1 -6 7 10 7 11 13 2 30 -8 15 -9 21 -1 21 6
0 9 4 6 8 -3 5 2 9 10 9 10 0 11 -4 4 -11z m1027 -38 c-3 -8 -6 -5 -6 6 -1 11
2 17 5 13 3 -3 4 -12 1 -19z m-1063 -12 c-3 -9 -10 -16 -15 -16 -5 0 -4 9 3
20 14 22 21 20 12 -4z m1026 -1 c7 -9 8 -15 2 -15 -5 0 -12 7 -16 15 -3 8 -4
15 -2 15 2 0 9 -7 16 -15z m47 -11 c-3 -3 -12 -4 -19 -1 -8 3 -5 6 6 6 11 1
17 -2 13 -5z m-1113 -89 c5 -22 4 -26 -4 -15 -8 13 -10 13 -10 0 0 -9 5 -21
12 -28 9 -9 9 -15 -1 -24 -10 -11 -11 -10 -6 2 3 9 -3 21 -14 29 -17 13 -18
15 -2 42 8 15 16 27 17 26 1 -1 4 -15 8 -32z m-53 -58 c-10 -9 -11 -8 -5 6 3
10 9 15 12 12 3 -3 0 -11 -7 -18z m-27 -64 c-1 -16 -3 -30 -4 -33 -1 -3 -1 -9
0 -15 7 -28 6 -63 -2 -59 -5 4 -7 12 -4 20 6 15 -2 44 -13 44 -16 0 -60 -88
-57 -115 3 -23 -3 -37 -26 -57 -16 -16 -33 -28 -38 -28 -4 0 -11 -11 -14 -25
-4 -14 -11 -25 -17 -25 -6 0 -7 -5 -3 -12 4 -7 3 -8 -4 -4 -12 7 -5 36 9 36 5
0 9 7 9 15 0 8 11 22 24 30 29 19 45 50 21 41 -12 -4 -11 0 4 22 10 15 33 50
50 79 18 28 38 54 46 57 8 3 15 11 15 17 0 8 -5 7 -17 -2 -14 -12 -14 -10 1
14 10 15 19 27 20 27 1 0 1 -12 0 -27z m1253 -95 c-3 -7 -5 -2 -5 12 0 14 2
19 5 13 2 -7 2 -19 0 -25z m-1284 -1 c3 -8 -1 -14 -8 -14 -7 0 -11 6 -8 14 3
7 6 13 8 13 2 0 5 -6 8 -13z m1253 -52 l-14 -50 1 46 c1 26 5 45 10 42 4 -2 7
4 8 14 0 10 2 14 5 8 2 -5 -3 -32 -10 -60z m21 -67 c-3 -8 -6 -5 -6 6 -1 11 2
17 5 13 3 -3 4 -12 1 -19z m-30 -30 c-3 -8 -6 -5 -6 6 -1 11 2 17 5 13 3 -3 4
-12 1 -19z m-1302 -8 c3 -5 -1 -10 -10 -10 -9 0 -13 5 -10 10 3 6 8 10 10 10
2 0 7 -4 10 -10z m1352 -142 c-2 -24 -4 -5 -4 42 0 47 2 66 4 43 2 -24 2 -62
0 -85z m-20 50 c-3 -8 -6 -5 -6 6 -1 11 2 17 5 13 3 -3 4 -12 1 -19z m-6 -52
c5 3 9 -12 9 -33 0 -30 3 -35 11 -23 8 12 9 10 5 -10 -3 -14 -6 -31 -6 -37 0
-7 -4 -13 -10 -13 -5 0 -7 6 -4 13 2 7 -2 30 -11 50 -8 20 -15 44 -14 54 0 11
3 13 6 5 2 -6 9 -10 14 -6z m-1492 -64 l-1 -27 -7 25 c-6 23 -8 23 -14 6 -4
-10 -10 -16 -13 -13 -9 9 16 48 27 42 5 -4 9 -18 8 -33z m12 -45 c-10 -9 -11
-8 -5 6 3 10 9 15 12 12 3 -3 0 -11 -7 -18z m1479 -42 c1 -26 3 -27 10 -10 6
13 9 15 9 5 1 -8 -6 -28 -14 -44 -8 -15 -15 -38 -15 -49 0 -29 -6 -18 -14 26
-4 23 -3 37 3 37 6 0 8 -8 5 -17 -5 -15 -4 -16 5 -2 6 10 7 29 1 55 -12 50
-12 76 0 49 5 -11 9 -33 10 -50z m-1555 -6 c0 -18 -6 -33 -13 -35 -7 -1 -8 0
-2 3 5 2 10 12 10 21 0 12 -5 10 -25 -8 -14 -13 -25 -20 -25 -17 0 4 0 10 0
15 0 4 4 7 10 7 14 0 41 41 32 50 -4 5 -2 6 3 2 6 -3 11 -20 10 -38z m-78 -81
c-3 -7 -5 -2 -5 12 0 14 2 19 5 13 2 -7 2 -19 0 -25z m-8 -45 c0 -25 -1 -25
-8 -8 -5 11 -7 23 -4 28 8 14 13 7 12 -20z m-43 -22 c-11 -12 -13 -21 -7 -25
6 -4 2 -15 -10 -27 -15 -15 -19 -28 -15 -45 4 -16 2 -24 -6 -25 -7 0 -21 -2
-30 -4 -10 -2 -18 1 -18 6 0 6 -5 7 -11 3 -8 -5 -8 -1 0 14 21 40 37 36 32 -7
-2 -7 3 -10 9 -6 6 4 9 13 6 21 -3 7 0 16 5 20 6 3 8 15 6 26 -4 12 4 29 21
47 30 31 46 33 18 2z m-161 -221 c3 -5 1 -10 -4 -10 -6 0 -11 5 -11 10 0 6 2
10 4 10 3 0 8 -4 11 -10z m-121 -141 c-15 -17 -16 -22 -4 -29 8 -5 15 -21 15
-35 1 -24 0 -25 -12 -9 -12 17 -18 12 -13 -11 1 -5 -4 -4 -11 3 -10 9 -10 15
-1 24 18 18 14 32 -5 17 -15 -12 -16 -12 -8 1 10 19 47 60 53 60 3 0 -3 -9
-14 -21z m46 13 c0 -4 -9 -13 -20 -20 -19 -12 -20 -11 -8 8 13 20 28 27 28 12z
m35 -12 c-3 -5 -12 -10 -18 -10 -7 0 -6 4 3 10 19 12 23 12 15 0z m1785 -10
c0 -5 -5 -10 -11 -10 -5 0 -7 5 -4 10 3 6 8 10 11 10 2 0 4 -4 4 -10z m-64
-72 c-2 -10 0 -21 5 -24 5 -3 9 3 9 13 1 21 29 74 30 55 0 -7 -4 -20 -9 -30
-5 -9 -14 -29 -20 -44 -6 -16 -16 -28 -22 -28 -6 0 -8 7 -5 16 4 9 1 24 -6 32
-10 12 -10 14 0 8 7 -4 12 -2 12 8 0 8 -4 18 -10 21 -5 3 -10 12 -10 18 0 7 7
3 16 -8 8 -11 13 -28 10 -37z m-1851 -6 c-21 -15 -55 -72 -44 -72 7 0 9 -3 6
-6 -4 -4 -13 -1 -22 6 -10 8 -15 9 -15 1 0 -6 -7 -11 -16 -11 -14 0 -14 3 -4
15 7 9 19 14 26 11 15 -6 32 13 37 40 5 33 18 47 31 34 7 -7 7 -13 1 -18z
m-18 -74 c-3 -8 -6 -5 -6 6 -1 11 2 17 5 13 3 -3 4 -12 1 -19z m1833 -25 c0
-4 -7 -27 -16 -50 -14 -37 -19 -41 -32 -31 -13 11 -14 10 -8 -9 4 -12 3 -24
-1 -26 -4 -3 -9 14 -9 36 -1 23 1 36 3 29 3 -6 10 -9 15 -6 7 4 8 2 4 -4 -4
-7 -2 -12 3 -12 6 0 11 8 11 18 0 10 6 24 12 30 10 10 10 15 -2 22 -13 8 -12
10 3 10 9 0 17 -3 17 -7z m-43 -35 c-3 -8 -6 -5 -6 6 -1 11 2 17 5 13 3 -3 4
-12 1 -19z m-1874 -13 c4 3 5 2 2 -2 -3 -4 -16 -8 -28 -9 -12 -2 -16 0 -9 3
10 4 10 8 0 21 -10 14 -9 14 8 -1 11 -9 24 -15 27 -12z m1824 -40 c0 -8 -4
-15 -9 -15 -4 0 -8 7 -8 15 0 8 4 15 8 15 5 0 9 -7 9 -15z m-1902 -15 c4 -6
-1 -7 -12 -3 -17 6 -17 5 1 -15 11 -13 14 -22 7 -22 -6 0 -14 7 -17 15 -4 8
-10 12 -15 9 -5 -3 -7 -9 -5 -13 3 -4 -2 -8 -10 -8 -11 0 -9 6 8 24 23 25 34
28 43 13z m1875 -46 c0 -8 -19 -13 -24 -6 -3 5 1 9 9 9 8 0 15 -2 15 -3z m-92
-88 c-7 -8 -15 -12 -17 -11 -5 6 10 25 20 25 5 0 4 -6 -3 -14z m22 -27 c0 -8
5 -8 15 1 10 9 15 9 15 1 0 -6 -4 -11 -10 -11 -5 0 -10 -6 -10 -14 0 -18 -25
-27 -38 -14 -7 7 -7 16 1 29 13 21 27 25 27 8z m-65 -59 c-3 -5 -10 -10 -16
-10 -5 0 -9 5 -9 10 0 6 7 10 16 10 8 0 12 -4 9 -10z m-1986 -66 c-6 -17 -13
-24 -16 -16 -3 7 0 19 7 27 6 8 8 20 4 27 -5 10 -4 10 5 2 9 -8 9 -18 0 -40z
m2001 42 c0 -3 -4 -8 -10 -11 -5 -3 -10 -1 -10 4 0 6 5 11 10 11 6 0 10 -2 10
-4z m-30 -32 c0 -8 -5 -14 -11 -14 -5 0 -7 -5 -4 -10 4 -6 2 -9 -2 -8 -5 2
-28 -16 -50 -39 -27 -28 -47 -41 -57 -37 -9 3 -13 11 -9 17 5 8 8 7 11 -1 5
-16 42 3 42 22 0 8 11 21 25 30 16 11 22 22 19 34 -5 13 -4 14 4 3 12 -16 27
3 16 21 -4 7 -3 8 4 4 7 -4 12 -14 12 -22z m-99 -34 c5 0 9 4 9 9 0 5 9 11 20
14 26 7 26 -10 1 -18 -11 -3 -24 -18 -30 -33 -7 -22 -10 -23 -10 -7 -1 11 -3
29 -5 40 -2 11 -1 14 1 8 3 -7 9 -13 14 -13z m-1954 -48 c-10 -10 -17 -24 -17
-30 0 -7 -4 -12 -9 -12 -5 0 -8 11 -7 24 0 14 6 22 14 19 6 -3 12 0 12 6 0 6
5 11 12 11 6 0 4 -7 -5 -18z m70 2 c-3 -3 -12 -4 -19 -1 -8 3 -5 6 6 6 11 1
17 -2 13 -5z m1813 -14 c-8 -5 -19 -10 -25 -10 -5 0 -3 5 5 10 8 5 20 10 25
10 6 0 3 -5 -5 -10z m-1954 -58 c-18 -16 -18 -16 -8 4 6 12 10 24 8 26 -1 3 2
2 8 -3 7 -6 4 -15 -8 -27z m1944 23 c-7 -9 -15 -13 -19 -10 -3 3 1 10 9 15 21
14 24 12 10 -5z m55 5 c3 -5 1 -10 -4 -10 -6 0 -11 5 -11 10 0 6 2 10 4 10 3
0 8 -4 11 -10z m-37 -30 c-7 -11 -16 -20 -20 -20 -5 0 -3 9 4 20 7 11 16 20
20 20 5 0 3 -9 -4 -20z m-78 -30 c13 0 13 2 0 11 -12 8 -12 10 -1 7 24 -7 19
-32 -11 -57 -17 -14 -28 -18 -26 -10 2 8 12 19 23 26 20 12 20 12 -1 13 -12 0
-21 7 -21 15 0 11 4 12 11 5 5 -5 17 -10 26 -10z m-1880 -10 c0 -5 -5 -10 -11
-10 -5 0 -7 5 -4 10 3 6 8 10 11 10 2 0 4 -4 4 -10z m-83 -15 c0 -8 -3 -13 -5
-10 -3 3 -12 -1 -21 -7 -10 -8 -9 -4 3 10 23 26 23 26 23 7z m152 -44 c16 -10
8 -41 -11 -41 -9 0 -9 3 2 10 21 13 10 18 -29 12 l-34 -5 24 -13 c14 -8 18
-13 9 -13 -8 0 -24 6 -34 14 -14 11 -16 15 -5 15 12 0 12 2 -1 10 -10 6 -3 7
24 3 28 -4 37 -3 32 5 -8 14 3 15 23 3z m1711 -1 c8 -5 11 -10 5 -10 -5 0 -17
5 -25 10 -8 5 -10 10 -5 10 6 0 17 -5 25 -10z m-12 -18 c9 -6 5 -12 -14 -21
-15 -6 -29 -9 -32 -7 -3 3 6 10 19 15 l24 10 -27 0 c-15 1 -30 -3 -33 -9 -3
-5 -12 -10 -18 -10 -7 0 -3 7 7 15 22 16 54 19 74 7z m-1648 -62 c8 -5 11 -10
5 -10 -5 0 -17 5 -25 10 -8 5 -10 10 -5 10 6 0 17 -5 25 -10z m108 1 c10 -6 8
-10 -9 -14 -13 -4 -25 -4 -28 -2 -2 3 2 5 10 6 8 1 3 5 -11 9 l-25 8 25 1 c14
0 31 -3 38 -8z m-63 -22 c-4 -5 3 -9 14 -9 11 0 23 -4 26 -10 8 -13 3 -13 -32
2 -15 6 -35 10 -43 9 -10 -2 -9 2 5 12 20 16 40 13 30 -4z m192 -63 c12 -4 24
-2 27 3 7 11 36 4 36 -8 0 -4 -8 -7 -17 -7 -10 0 -29 -4 -43 -8 -20 -6 -22 -5
-10 4 12 10 11 11 -8 7 -12 -3 -20 -1 -17 3 3 5 2 10 -2 13 -10 5 5 2 34 -7z
m98 4 c3 -5 2 -10 -4 -10 -5 0 -13 5 -16 10 -3 6 -2 10 4 10 5 0 13 -4 16 -10z
m982 -2 c7 -1 10 -5 7 -10 -3 -5 -9 -6 -13 -3 -5 2 -22 1 -38 -4 -21 -6 -30
-5 -30 3 0 8 11 11 26 9 24 -3 24 -2 6 7 -18 9 -17 10 5 4 14 -3 30 -6 37 -6z
m-964 -25 c-7 -2 -21 -2 -30 0 -10 3 -4 5 12 5 17 0 24 -2 18 -5z m834 1 c-3
-3 -12 -4 -19 -1 -8 3 -5 6 6 6 11 1 17 -2 13 -5z m-771 -30 c18 -15 18 -15
-6 -9 -14 4 -41 10 -60 15 l-35 8 41 1 c23 1 48 -6 60 -15z m777 9 c-7 -2 -19
-2 -25 0 -7 3 -2 5 12 5 14 0 19 -2 13 -5z m-73 -12 c0 -5 -11 -11 -25 -13
-14 -3 -25 -3 -25 -1 0 3 34 19 48 22 1 1 2 -3 2 -8z m-530 -21 c-8 -5 -24 -9
-35 -9 -16 1 -16 2 5 9 35 11 48 11 30 0z m235 2 c-29 -6 -29 -6 10 -12 27 -5
2 -8 -74 -9 -63 0 -112 2 -109 5 7 6 129 21 173 21 l30 0 -30 -5z m100 -2 c-3
-5 -12 -10 -18 -10 -7 0 -6 4 3 10 19 12 23 12 15 0z m58 -7 c-7 -2 -19 -2
-25 0 -7 3 -2 5 12 5 14 0 19 -2 13 -5z"/>
<path d="M3561 2824 c0 -11 3 -14 6 -6 3 7 2 16 -1 19 -3 4 -6 -2 -5 -13z"/>
<path d="M2375 2190 c-3 -5 -1 -10 4 -10 6 0 11 5 11 10 0 6 -2 10 -4 10 -3 0
-8 -4 -11 -10z"/>
<path d="M1995 1620 c-3 -5 -1 -10 4 -10 6 0 11 5 11 10 0 6 -2 10 -4 10 -3 0
-8 -4 -11 -10z"/>
<path d="M1940 1549 c0 -5 5 -7 10 -4 6 3 10 8 10 11 0 2 -4 4 -10 4 -5 0 -10
-5 -10 -11z"/>
<path d="M3300 814 c0 -8 5 -12 10 -9 6 3 10 10 10 16 0 5 -4 9 -10 9 -5 0
-10 -7 -10 -16z"/>
<path d="M1015 3481 c-3 -5 -2 -12 3 -15 5 -3 9 1 9 9 0 17 -3 19 -12 6z"/>
<path d="M2810 3341 c0 -5 5 -13 10 -16 6 -3 10 -2 10 4 0 5 -4 13 -10 16 -5
3 -10 2 -10 -4z"/>
<path d="M3370 3174 c0 -15 22 -44 30 -39 6 4 5 14 -3 25 -11 19 -27 27 -27
14z"/>
<path d="M2260 3010 c6 -11 16 -20 22 -20 6 0 3 9 -7 20 -10 11 -20 20 -22 20
-2 0 1 -9 7 -20z"/>
<path d="M2255 2409 c-4 -6 -5 -12 -2 -15 2 -3 7 2 10 11 7 17 1 20 -8 4z"/>
<path d="M1667 2082 c-14 -15 -26 -54 -13 -41 2 2 4 7 3 10 -1 4 7 16 17 28
11 12 17 21 14 21 -3 0 -12 -8 -21 -18z"/>
<path d="M1299 1328 c11 -14 11 -18 1 -18 -8 0 -11 -2 -8 -5 8 -8 38 6 38 18
0 6 -3 7 -7 4 -3 -4 -13 -1 -22 6 -14 11 -14 10 -2 -5z"/>
<path d="M595 1246 c-14 -10 -15 -15 -5 -21 8 -5 11 -4 6 3 -4 6 3 12 16 14
14 2 18 6 12 10 -6 4 -19 1 -29 -6z"/>
</g>
</svg>
