<svg width="29" height="28" viewBox="0 0 29 28" fill="none" xmlns="http://www.w3.org/2000/svg">
<path d="M7.99172 13.349C10.0814 14.0827 12.2856 14.4362 14.5 14.3929C16.7144 14.4359 18.9186 14.0821 21.0082 13.3481C22.6392 12.712 23.2176 12.005 23.2176 11.5981V8.48749C22.6472 8.86908 22.0355 9.18492 21.3941 9.42899C19.1833 10.2205 16.8478 10.6064 14.5 10.5682C12.1523 10.6051 9.81721 10.2198 7.60585 9.43074C6.96407 9.1868 6.35227 8.87034 5.78235 8.48749V11.5937C5.78235 12.0085 6.36247 12.712 7.99172 13.349ZM7.99172 19.2159C8.72987 19.4974 9.49106 19.7144 10.2667 19.8642C11.6616 20.1335 13.0794 20.2663 14.5 20.2606C15.9206 20.2666 17.3383 20.1341 18.7332 19.8651C19.5089 19.7152 20.2701 19.4983 21.0082 19.2167C22.6392 18.5806 23.2176 17.8736 23.2176 17.4667V14.5005C22.7463 14.7841 22.2508 15.0257 21.7371 15.2224C19.4146 16.0445 16.9633 16.4425 14.5 16.3975C12.0364 16.4411 9.58507 16.0416 7.26285 15.218C6.74963 15.0201 6.25432 14.7786 5.78235 14.4961V17.465C5.78235 17.8727 6.36247 18.5771 7.99172 19.2159ZM14.5 26.25C19.3125 26.25 23.2176 24.724 23.2176 22.8427V20.3604C22.7888 20.6188 22.3396 20.8418 21.8745 21.0271L21.7371 21.0822C19.415 21.9067 16.9637 22.3071 14.5 22.2644C12.0361 22.309 9.58443 21.9086 7.26285 21.0822L7.12547 21.0271C6.66035 20.8418 6.21114 20.6188 5.78235 20.3604V22.8427C5.78235 24.724 9.68747 26.25 14.5 26.25Z" fill="#FFDA44"/>
<path d="M14.5 8.5645C19.3146 8.5645 23.2176 7.03902 23.2176 5.15725C23.2176 3.27548 19.3146 1.75 14.5 1.75C9.68536 1.75 5.78235 3.27548 5.78235 5.15725C5.78235 7.03902 9.68536 8.5645 14.5 8.5645Z" fill="#FFDA44"/>
</svg>
